<svg version="1.1" xmlns="http://www.w3.org/2000/svg" viewBox="0 0 73.40638753776966 106.75312933151326" width="146.81277507553932" height="213.50625866302653">
  <!-- svg-source:excalidraw -->
  
  <defs>
    <style class="style-fonts">
      
    </style>
    
  </defs>
  <rect x="0" y="0" width="73.40638753776966" height="106.75312933151326" fill="#f8f9fa"></rect><g stroke-linecap="round" transform="translate(13.232882576680822 9.99999999999909) rotate(0 11.324138699996183 11.262486526396515)"><path d="M0.74 7.27 C0.74 7.27, 0.74 7.27, 0.74 7.27 M0.74 7.27 C0.74 7.27, 0.74 7.27, 0.74 7.27 M0.48 13.67 C2.78 9.97, 5.54 7.39, 10.97 1.59 M0.48 13.67 C3.65 10.48, 6.39 7.09, 10.97 1.59 M2.84 17.04 C8.37 10.77, 13.54 6.38, 15.96 1.95 M2.84 17.04 C8.32 11, 13.73 4.81, 15.96 1.95 M5.2 20.42 C8.25 15.66, 12.5 13.24, 18.98 4.57 M5.2 20.42 C8.66 16.57, 11.31 13.23, 18.98 4.57 M9.53 21.54 C13.46 16.19, 17.56 12.47, 22 7.2 M9.53 21.54 C12.43 18.2, 14.26 15.25, 22 7.2 M14.52 21.9 C16.47 19.96, 18.43 18.43, 23.05 12.09 M14.52 21.9 C16.81 19.19, 19.09 16.43, 23.05 12.09 M4.93 20.24 C4.93 20.24, 4.93 20.24, 4.93 20.24 M4.93 20.24 C4.93 20.24, 4.93 20.24, 4.93 20.24 M12.83 21.82 C9.45 18.59, 6.75 16.78, 0.76 11.32 M12.83 21.82 C9.19 18.67, 6.01 15.72, 0.76 11.32 M16.97 20.11 C11.61 16.51, 8.89 11.49, 1.12 6.33 M16.97 20.11 C12.42 15.69, 8.03 11.96, 1.12 6.33 M20.35 17.75 C17.32 15.07, 12.85 11.76, 3.74 3.32 M20.35 17.75 C15.34 12.98, 10.32 8.88, 3.74 3.32 M22.22 14.07 C17.48 10, 14.76 7.42, 6.37 0.3 M22.22 14.07 C18.47 10.52, 14.38 7.01, 6.37 0.3 M21.82 8.43 C18.49 5.69, 15.21 3.69, 12.01 -0.1 M21.82 8.43 C18.09 5.58, 14.52 1.9, 12.01 -0.1" stroke="#000000" stroke-width="0.5" fill="none"></path><path d="M13.63 0.54 C15.86 0.95, 18.73 2.89, 20.25 4.79 C21.77 6.69, 22.9 9.49, 22.76 11.95 C22.61 14.41, 21.16 17.78, 19.38 19.54 C17.6 21.29, 14.48 22.36, 12.08 22.49 C9.68 22.62, 6.92 21.73, 5 20.31 C3.08 18.89, 1.24 16.17, 0.54 13.97 C-0.15 11.78, -0.13 9.32, 0.84 7.15 C1.81 4.99, 4.05 2.15, 6.34 0.99 C8.64 -0.16, 13.16 0.29, 14.59 0.22 C16.01 0.15, 14.93 0.43, 14.91 0.58 M14.45 -0.09 C16.52 0.44, 18.37 3.05, 19.77 4.97 C21.18 6.9, 22.91 9.13, 22.91 11.48 C22.91 13.82, 21.49 17.3, 19.78 19.05 C18.06 20.8, 15.08 21.59, 12.62 21.97 C10.16 22.34, 7.15 22.53, 5.01 21.32 C2.87 20.11, 0.51 17.19, -0.22 14.72 C-0.94 12.25, -0.41 8.73, 0.63 6.5 C1.67 4.27, 3.79 2.47, 6.03 1.33 C8.28 0.19, 12.81 -0.27, 14.09 -0.36 C15.36 -0.46, 13.63 0.59, 13.69 0.77" stroke="#000000" stroke-width="1" fill="none"></path></g><g stroke-linecap="round" transform="translate(19.020407175456057 15.633176967944564) rotate(0 5.548695623963795 5.579521710763402)"><path d="M5.59 0.21 C6.73 -0.03, 8.44 0.25, 9.37 0.89 C10.3 1.53, 10.95 2.87, 11.17 4.04 C11.4 5.21, 11.36 6.87, 10.73 7.92 C10.09 8.97, 8.56 9.89, 7.38 10.33 C6.19 10.77, 4.75 10.85, 3.62 10.57 C2.49 10.28, 1.22 9.65, 0.59 8.63 C-0.04 7.62, -0.35 5.56, -0.15 4.45 C0.06 3.33, 0.88 2.62, 1.83 1.95 C2.78 1.28, 4.95 0.68, 5.58 0.45 C6.21 0.21, 5.7 0.43, 5.63 0.52 M6.86 0.78 C8.14 0.77, 9.37 1.06, 10.15 1.8 C10.93 2.55, 11.45 4.12, 11.54 5.26 C11.64 6.4, 11.55 7.59, 10.7 8.65 C9.85 9.72, 7.64 11.38, 6.44 11.65 C5.23 11.93, 4.55 10.89, 3.46 10.3 C2.37 9.71, 0.32 9.26, -0.12 8.11 C-0.55 6.96, 0.3 4.62, 0.85 3.41 C1.4 2.21, 2.19 1.52, 3.18 0.89 C4.17 0.27, 6.33 -0.21, 6.81 -0.33 C7.29 -0.44, 6.11 0, 6.06 0.19" stroke="none" stroke-width="0" fill="#ffffff"></path><path d="M5.69 0.18 C6.91 0.14, 8.64 0.6, 9.52 1.47 C10.4 2.35, 10.93 4.24, 10.96 5.44 C10.99 6.65, 10.36 7.84, 9.71 8.71 C9.07 9.57, 8.14 10.37, 7.09 10.63 C6.04 10.89, 4.52 10.63, 3.41 10.27 C2.3 9.91, 0.98 9.52, 0.44 8.5 C-0.1 7.47, -0.15 5.37, 0.17 4.1 C0.48 2.82, 1.31 1.55, 2.31 0.83 C3.3 0.11, 5.41 -0.04, 6.14 -0.22 C6.87 -0.4, 6.6 -0.44, 6.68 -0.24 M4.1 0.4 C5.19 0.15, 7.62 -0.27, 8.79 0.31 C9.96 0.88, 10.79 2.71, 11.12 3.86 C11.45 5, 11.27 5.97, 10.78 7.19 C10.28 8.42, 9.31 10.53, 8.13 11.23 C6.96 11.92, 4.93 11.77, 3.71 11.36 C2.5 10.96, 1.5 9.77, 0.83 8.8 C0.16 7.83, -0.41 6.82, -0.3 5.54 C-0.19 4.27, 0.69 2.02, 1.49 1.14 C2.29 0.26, 3.83 0.55, 4.49 0.27 C5.16 0, 5.42 -0.45, 5.49 -0.51" stroke="#000000" stroke-width="1" fill="none"></path></g><g stroke-linecap="round" transform="translate(40.758110137777294 25.78742687697286) rotate(0 11.324138699996183 11.262486526396515)"><path d="M4.94 1.64 C4.94 1.64, 4.94 1.64, 4.94 1.64 M4.94 1.64 C4.94 1.64, 4.94 1.64, 4.94 1.64 M0.74 12.57 C2.89 9.06, 5.71 7.73, 11.24 0.49 M0.74 12.57 C4.13 8.66, 7.31 5.6, 11.24 0.49 M2.45 16.7 C6.69 13.57, 9.06 9.64, 15.57 1.61 M2.45 16.7 C6.03 12.67, 10.45 7.59, 15.57 1.61 M4.81 20.08 C7.3 17.16, 11.26 13.33, 19.24 3.48 M4.81 20.08 C8.68 16.05, 12.46 11.55, 19.24 3.48 M7.83 22.7 C10.42 19.67, 14.34 15.45, 20.95 7.61 M7.83 22.7 C10.37 19.47, 13.43 16.13, 20.95 7.61 M13.47 22.31 C15.9 19.48, 18.9 16.17, 22 12.5 M13.47 22.31 C16.11 19.81, 18.68 16.76, 22 12.5 M6.21 21.81 C6.21 21.81, 6.21 21.81, 6.21 21.81 M6.21 21.81 C6.21 21.81, 6.21 21.81, 6.21 21.81 M12.61 22.08 C9.76 20.08, 7.53 17.03, 1.29 12.23 M12.61 22.08 C9.69 19.62, 6.68 16.78, 1.29 12.23 M16.74 20.37 C11.28 16.47, 6.16 11.32, 0.9 6.59 M16.74 20.37 C12.91 17.13, 10.11 14.75, 0.9 6.59 M20.12 18.01 C14.15 13.61, 7.35 7.65, 3.52 3.57 M20.12 18.01 C16.38 14.82, 12.87 11.46, 3.52 3.57 M21.24 13.67 C17.03 9.99, 14.09 7.59, 6.9 1.21 M21.24 13.67 C17.53 10.48, 13.36 6.88, 6.9 1.21 M23.11 10 C20.45 7.77, 16.88 4.3, 11.79 0.16 M23.11 10 C18.76 5.72, 14.45 2.3, 11.79 0.16" stroke="#000000" stroke-width="0.5" fill="none"></path><path d="M12.63 -0.02 C14.96 0.13, 17.76 2.15, 19.35 3.9 C20.94 5.65, 21.98 8.21, 22.17 10.49 C22.36 12.77, 21.82 15.69, 20.48 17.57 C19.15 19.45, 16.55 21.06, 14.18 21.77 C11.8 22.48, 8.44 22.85, 6.24 21.84 C4.05 20.83, 1.95 18.02, 0.99 15.7 C0.03 13.38, -0.18 10.26, 0.47 7.93 C1.13 5.59, 2.83 3.05, 4.91 1.67 C6.99 0.29, 11.51 -0.19, 12.93 -0.35 C14.35 -0.5, 13.54 0.41, 13.44 0.72 M10.02 -0.44 C12.45 -0.96, 15.58 0.4, 17.61 1.69 C19.63 2.97, 21.48 4.86, 22.18 7.28 C22.88 9.69, 22.86 13.81, 21.83 16.18 C20.79 18.56, 18.19 20.55, 15.99 21.53 C13.79 22.52, 10.96 22.61, 8.64 22.08 C6.33 21.56, 3.53 20.37, 2.1 18.39 C0.67 16.4, -0.03 12.59, 0.05 10.19 C0.14 7.78, 0.87 5.75, 2.6 3.96 C4.33 2.16, 9.21 0.16, 10.42 -0.56 C11.62 -1.28, 9.8 -0.71, 9.82 -0.37" stroke="#000000" stroke-width="1" fill="none"></path></g><g stroke-linecap="round" transform="translate(46.54563473655162 31.42060384492015) rotate(0 5.548695623963795 5.579521710763402)"><path d="M6.34 -0.25 C7.43 -0.2, 9.03 0.67, 9.77 1.51 C10.5 2.35, 10.75 3.63, 10.74 4.8 C10.74 5.96, 10.43 7.47, 9.74 8.5 C9.05 9.53, 7.73 10.73, 6.6 11.01 C5.46 11.28, 3.94 10.59, 2.94 10.15 C1.93 9.7, 1.01 9.25, 0.55 8.31 C0.1 7.37, -0.06 5.66, 0.2 4.5 C0.47 3.34, 1.16 2.02, 2.14 1.36 C3.12 0.7, 5.26 0.78, 6.09 0.56 C6.92 0.34, 7.02 -0.04, 7.13 0.04 M7.36 0.15 C8.5 0.3, 10.2 0.96, 10.76 2.04 C11.32 3.12, 10.85 5.43, 10.71 6.63 C10.58 7.82, 10.81 8.4, 9.95 9.21 C9.09 10.02, 6.7 11.4, 5.55 11.47 C4.4 11.55, 3.82 10.38, 3.04 9.65 C2.26 8.92, 1.2 8.21, 0.87 7.09 C0.54 5.97, 0.72 4.01, 1.08 2.93 C1.43 1.84, 1.96 1.02, 2.98 0.59 C4.01 0.17, 6.5 0.48, 7.25 0.38 C8 0.28, 7.59 0.01, 7.47 -0.01" stroke="none" stroke-width="0" fill="#ffffff"></path><path d="M5.91 0.49 C6.94 0.53, 8.15 0.94, 9.01 1.65 C9.87 2.36, 10.87 3.66, 11.06 4.77 C11.26 5.89, 10.9 7.24, 10.2 8.35 C9.5 9.46, 8.03 11.06, 6.87 11.41 C5.71 11.77, 4.27 11.1, 3.22 10.49 C2.17 9.87, 1.08 8.81, 0.57 7.71 C0.05 6.61, -0.21 5.07, 0.12 3.89 C0.45 2.7, 1.45 1.16, 2.55 0.58 C3.64 0, 6.09 0.43, 6.68 0.41 C7.27 0.39, 6.23 0.49, 6.09 0.45 M6.48 0.02 C7.58 0.09, 8.91 0.26, 9.67 1.25 C10.44 2.24, 11.14 4.63, 11.09 5.96 C11.03 7.29, 10.11 8.43, 9.34 9.24 C8.58 10.05, 7.59 10.56, 6.49 10.81 C5.4 11.06, 3.75 11.37, 2.75 10.75 C1.75 10.13, 0.97 8.19, 0.5 7.1 C0.03 6.01, -0.52 5.35, -0.07 4.2 C0.37 3.06, 2.12 1.06, 3.17 0.25 C4.23 -0.57, 5.64 -0.69, 6.24 -0.67 C6.84 -0.64, 6.83 0.08, 6.78 0.4" stroke="#000000" stroke-width="1" fill="none"></path></g><g stroke-linecap="round" transform="translate(40.73601022904404 58.07086060267011) rotate(0 11.324138699996183 11.262486526396515)"><path d="M4.02 3.5 C4.02 3.5, 4.02 3.5, 4.02 3.5 M4.02 3.5 C4.02 3.5, 4.02 3.5, 4.02 3.5 M1.14 12.91 C3.31 11.05, 5.05 8.45, 11.63 0.84 M1.14 12.91 C3.13 10.58, 5.91 8.13, 11.63 0.84 M2.19 17.8 C7.3 12.8, 12.09 5.44, 15.97 1.95 M2.19 17.8 C7.08 11.95, 13.17 5.25, 15.97 1.95 M5.86 19.67 C10.72 13.27, 16.61 7.77, 19.64 3.82 M5.86 19.67 C10.14 14.2, 15.31 8.84, 19.64 3.82 M9.54 21.54 C13.83 14.9, 18.93 9.15, 22 7.2 M9.54 21.54 C13.65 17.18, 18.03 12.16, 22 7.2 M14.52 21.9 C17.12 18.75, 19.62 16.07, 22.4 12.84 M14.52 21.9 C17.44 18.29, 21.02 14.85, 22.4 12.84 M1.36 16.73 C1.36 16.73, 1.36 16.73, 1.36 16.73 M1.36 16.73 C1.36 16.73, 1.36 16.73, 1.36 16.73 M12.29 20.92 C7.72 17.42, 3.65 13.54, 0.21 10.43 M12.29 20.92 C8.7 17.97, 4.5 14.3, 0.21 10.43 M17.17 19.87 C10.62 15.62, 5.47 9.25, 2.08 6.75 M17.17 19.87 C13.62 16.63, 9.79 13.28, 2.08 6.75 M20.55 17.51 C13.61 11.8, 7.76 6.4, 3.95 3.08 M20.55 17.51 C15.48 13.64, 11.13 8.74, 3.95 3.08 M21.67 13.18 C18.04 10.17, 14.54 7.57, 8.08 1.37 M21.67 13.18 C17.26 8.91, 13.28 5.82, 8.08 1.37 M22.78 8.85 C19.73 5.74, 15.06 2.73, 12.97 0.32 M22.78 8.85 C20.79 7.03, 18.7 5.46, 12.97 0.32" stroke="#000000" stroke-width="0.5" fill="none"></path><path d="M10.44 0.03 C12.76 -0.32, 16.25 0.66, 18.26 2.06 C20.27 3.47, 22 5.99, 22.49 8.47 C22.98 10.96, 22.36 14.79, 21.21 16.97 C20.06 19.15, 17.82 20.74, 15.6 21.54 C13.39 22.33, 10.22 22.49, 7.9 21.74 C5.57 20.98, 2.94 19.07, 1.67 17 C0.4 14.92, -0.12 11.58, 0.3 9.3 C0.72 7.01, 2.39 4.79, 4.21 3.29 C6.02 1.78, 9.94 0.86, 11.2 0.27 C12.46 -0.31, 11.67 -0.39, 11.75 -0.22 M9.35 -0.31 C11.54 -0.74, 14.91 0.84, 16.89 2.17 C18.88 3.49, 20.47 5.54, 21.27 7.64 C22.06 9.75, 22.41 12.57, 21.66 14.82 C20.91 17.07, 18.79 20, 16.77 21.14 C14.74 22.29, 11.9 22.07, 9.51 21.68 C7.11 21.29, 3.88 20.63, 2.41 18.8 C0.94 16.97, 0.64 13.26, 0.68 10.69 C0.71 8.12, 1.1 5.11, 2.63 3.4 C4.16 1.69, 8.78 0.83, 9.86 0.44 C10.95 0.05, 9.1 0.84, 9.14 1.07" stroke="#000000" stroke-width="1" fill="none"></path></g><g stroke-linecap="round" transform="translate(46.52353482781837 63.7040375706174) rotate(0 5.548695623963795 5.579521710763402)"><path d="M4.43 -0.33 C5.45 -0.58, 7.16 -0.2, 8.18 0.5 C9.19 1.19, 10.13 2.75, 10.52 3.87 C10.91 4.98, 10.89 6.03, 10.51 7.21 C10.12 8.39, 9.24 10.24, 8.22 10.95 C7.21 11.67, 5.61 11.74, 4.39 11.48 C3.17 11.23, 1.69 10.35, 0.89 9.42 C0.08 8.48, -0.56 7.16, -0.43 5.86 C-0.3 4.56, 0.7 2.51, 1.66 1.61 C2.62 0.71, 4.65 0.65, 5.33 0.46 C6 0.27, 5.76 0.42, 5.72 0.49 M5.14 0.64 C6.22 0.56, 8.62 0.31, 9.51 1.02 C10.39 1.74, 10.2 3.78, 10.44 4.91 C10.69 6.04, 11.36 6.81, 10.98 7.79 C10.6 8.77, 9.26 10.35, 8.15 10.8 C7.03 11.25, 5.53 10.86, 4.28 10.47 C3.02 10.08, 1.26 9.37, 0.62 8.44 C-0.03 7.5, 0.1 6.09, 0.42 4.86 C0.74 3.63, 1.73 1.93, 2.54 1.05 C3.34 0.16, 4.62 -0.18, 5.23 -0.45 C5.84 -0.72, 6.04 -0.68, 6.21 -0.57" stroke="none" stroke-width="0" fill="#ffffff"></path><path d="M6.82 -0.15 C8.03 -0.03, 9.41 0.75, 10.1 1.84 C10.79 2.92, 11.04 5.12, 10.96 6.36 C10.87 7.6, 10.37 8.51, 9.59 9.26 C8.8 10.01, 7.42 10.76, 6.22 10.88 C5.03 11, 3.39 10.66, 2.43 9.97 C1.46 9.28, 0.67 7.78, 0.42 6.74 C0.18 5.7, 0.55 4.71, 0.94 3.73 C1.34 2.75, 1.83 1.53, 2.79 0.86 C3.76 0.2, 5.97 -0.22, 6.73 -0.27 C7.5 -0.32, 7.43 0.35, 7.39 0.55 M5.51 0.71 C6.51 0.77, 7.57 1, 8.43 1.61 C9.29 2.23, 10.4 3.23, 10.67 4.38 C10.94 5.53, 10.59 7.56, 10.06 8.52 C9.54 9.48, 8.64 9.69, 7.53 10.12 C6.41 10.54, 4.4 11.46, 3.38 11.06 C2.37 10.66, 1.98 8.91, 1.44 7.73 C0.9 6.54, -0.06 4.97, 0.13 3.94 C0.31 2.92, 1.69 2.12, 2.56 1.58 C3.43 1.03, 4.75 0.81, 5.35 0.65 C5.96 0.5, 6.09 0.51, 6.17 0.62" stroke="#000000" stroke-width="1" fill="none"></path></g><g stroke-linecap="round" transform="translate(13.150887938397318 74.22815627872023) rotate(0 11.324138699996183 11.262486526396515)"><path d="M3.89 2.06 C3.89 2.06, 3.89 2.06, 3.89 2.06 M3.89 2.06 C3.89 2.06, 3.89 2.06, 3.89 2.06 M0.35 12.23 C3.99 8, 9.48 1.79, 11.5 -0.6 M0.35 12.23 C4.7 7.49, 8.74 2.75, 11.5 -0.6 M2.06 16.36 C8.13 11, 12.12 3.71, 15.18 1.27 M2.06 16.36 C6.97 11.19, 11.46 5.73, 15.18 1.27 M5.08 18.99 C9.22 15.29, 12.42 9.7, 18.85 3.14 M5.08 18.99 C8.81 15.03, 11.99 11.07, 18.85 3.14 M8.1 21.61 C11.1 17.82, 13.91 15.48, 21.22 6.52 M8.1 21.61 C12.92 16.36, 17.4 10.78, 21.22 6.52 M13.08 21.97 C16.43 19.49, 18.61 15.45, 22.27 11.41 M13.08 21.97 C15.55 18.73, 18.6 15.48, 22.27 11.41 M2.16 17.33 C2.16 17.33, 2.16 17.33, 2.16 17.33 M2.16 17.33 C2.16 17.33, 2.16 17.33, 2.16 17.33 M12.33 20.88 C8.61 17.05, 4.01 14.49, 0.25 10.38 M12.33 20.88 C7.95 16.8, 3.01 12.31, 0.25 10.38 M17.22 19.82 C10.91 15.19, 6.26 10.16, 1.37 6.05 M17.22 19.82 C12.75 15.19, 7.55 11.07, 1.37 6.05 M20.6 17.46 C16.16 13.31, 11.22 9.31, 3.99 3.03 M20.6 17.46 C13.94 12.02, 8.03 6.24, 3.99 3.03 M21.71 13.13 C17.96 8.85, 13.25 6.03, 7.37 0.67 M21.71 13.13 C19.02 10.73, 15.62 8.44, 7.37 0.67 M22.83 8.8 C18.63 6.4, 16.06 2.87, 11.5 -1.04 M22.83 8.8 C19.69 6.36, 16.6 3.03, 11.5 -1.04" stroke="#000000" stroke-width="0.5" fill="none"></path><path d="M11.57 -0.42 C13.86 -0.4, 16.77 1.56, 18.59 3.18 C20.41 4.8, 22.09 7.03, 22.51 9.3 C22.93 11.56, 22.35 14.72, 21.09 16.78 C19.84 18.83, 17.25 20.87, 14.99 21.63 C12.72 22.4, 9.68 22.11, 7.5 21.36 C5.33 20.61, 3.19 19.12, 1.93 17.13 C0.67 15.15, -0.4 11.94, -0.07 9.43 C0.25 6.92, 1.88 3.61, 3.88 2.07 C5.88 0.53, 10.66 0.47, 11.94 0.2 C13.22 -0.08, 11.61 0.27, 11.56 0.44 M8.8 0.48 C11 -0.19, 14.59 0.16, 16.74 1.37 C18.89 2.57, 20.82 5.5, 21.69 7.69 C22.57 9.89, 22.82 12.26, 21.97 14.52 C21.12 16.79, 18.6 20.1, 16.59 21.29 C14.58 22.48, 12.26 22.26, 9.93 21.66 C7.6 21.06, 4.18 19.42, 2.63 17.71 C1.08 16, 0.62 13.59, 0.61 11.4 C0.6 9.22, 0.98 6.39, 2.56 4.6 C4.15 2.81, 8.91 1.24, 10.12 0.66 C11.33 0.08, 9.95 0.95, 9.81 1.1" stroke="#000000" stroke-width="1" fill="none"></path></g><g stroke-linecap="round" transform="translate(18.938412537172553 79.86133324666571) rotate(0 5.548695623963795 5.579521710763402)"><path d="M4.19 0.12 C5.31 -0.19, 6.95 -0.4, 8.05 0.25 C9.16 0.9, 10.34 2.77, 10.8 4.04 C11.25 5.3, 11.23 6.73, 10.78 7.85 C10.33 8.97, 9.2 10.14, 8.11 10.76 C7.02 11.38, 5.33 11.86, 4.24 11.56 C3.16 11.27, 2.25 9.91, 1.6 9 C0.95 8.09, 0.31 7.2, 0.34 6.1 C0.36 5.01, 1.02 3.38, 1.73 2.43 C2.45 1.48, 4.14 0.68, 4.64 0.38 C5.15 0.08, 4.77 0.65, 4.75 0.65 M6.16 0.47 C7.31 0.59, 9.61 0.73, 10.54 1.62 C11.47 2.51, 11.8 4.56, 11.75 5.79 C11.71 7.01, 11.18 8.07, 10.25 8.96 C9.31 9.85, 7.37 10.88, 6.15 11.14 C4.93 11.4, 3.81 11.2, 2.93 10.51 C2.05 9.82, 1.32 8.25, 0.85 7 C0.39 5.75, -0.33 4.19, 0.14 3.02 C0.61 1.85, 2.44 0.5, 3.67 -0.03 C4.89 -0.57, 6.87 -0.15, 7.47 -0.2 C8.07 -0.25, 7.52 -0.4, 7.27 -0.33" stroke="none" stroke-width="0" fill="#ffffff"></path><path d="M4.58 0.51 C5.67 0.31, 7.39 0.15, 8.44 0.66 C9.48 1.16, 10.47 2.43, 10.84 3.54 C11.21 4.66, 11.06 6.26, 10.65 7.34 C10.24 8.42, 9.36 9.36, 8.41 10.04 C7.46 10.72, 6.19 11.54, 4.95 11.42 C3.7 11.31, 1.82 10.41, 0.95 9.34 C0.08 8.27, -0.39 6.2, -0.28 4.99 C-0.17 3.78, 0.8 2.88, 1.61 2.09 C2.42 1.29, 3.97 0.55, 4.56 0.23 C5.15 -0.09, 5.12 0.13, 5.14 0.19 M6.52 -0.04 C7.69 0.13, 8.94 1.57, 9.71 2.45 C10.48 3.33, 11.21 4.04, 11.13 5.24 C11.06 6.44, 9.98 8.78, 9.26 9.65 C8.55 10.52, 7.97 10.47, 6.85 10.45 C5.72 10.43, 3.53 10.03, 2.53 9.52 C1.53 9.01, 1.2 8.32, 0.83 7.4 C0.46 6.48, -0.18 5.05, 0.31 4 C0.79 2.95, 2.59 1.61, 3.73 1.09 C4.88 0.57, 6.7 0.96, 7.16 0.88 C7.62 0.8, 6.62 0.57, 6.48 0.6" stroke="#000000" stroke-width="1" fill="none"></path></g><g stroke-linecap="round" transform="translate(10.00000000000091 38.52668336917759) rotate(0 14.532477761297287 14.610680429210333)"><path d="M2.45 6.11 C2.45 6.11, 2.45 6.11, 2.45 6.11 M2.45 6.11 C2.45 6.11, 2.45 6.11, 2.45 6.11 M0.22 14.77 C5.74 9.96, 10.96 4.18, 12.69 0.43 M0.22 14.77 C4.43 10.22, 7.55 6.44, 12.69 0.43 M1.93 18.9 C8.03 13.31, 12.47 6.93, 17.68 0.79 M1.93 18.9 C6.46 13.55, 11.49 8.26, 17.68 0.79 M3.64 23.04 C10.02 16.02, 16.67 8.09, 22.01 1.9 M3.64 23.04 C7.81 17.37, 12.52 12.37, 22.01 1.9 M6.66 25.66 C11.27 21.86, 14.48 16.68, 24.37 5.28 M6.66 25.66 C12.38 18.82, 18.48 12.86, 24.37 5.28 M9.67 28.29 C16.42 21.43, 23.72 12.03, 27.39 7.91 M9.67 28.29 C14.74 22.57, 20 16.19, 27.39 7.91 M14.01 29.4 C18.81 24.85, 22.86 19.55, 29.09 12.04 M14.01 29.4 C19.39 23.19, 24.49 17.39, 29.09 12.04 M20.3 28.25 C22.97 25.4, 24.35 24.07, 28.83 18.44 M20.3 28.25 C23.16 25.16, 25.34 22.05, 28.83 18.44 M3.23 23.72 C3.23 23.72, 3.23 23.72, 3.23 23.72 M3.23 23.72 C3.23 23.72, 3.23 23.72, 3.23 23.72 M14.91 28.58 C11.82 25.69, 6.65 21.22, 0.57 16.11 M14.91 28.58 C10.24 24.28, 5.8 20.73, 0.57 16.11 M19.8 27.53 C15 24.91, 12.72 21.43, 1.68 11.78 M19.8 27.53 C13.89 22.13, 8.06 16.77, 1.68 11.78 M23.93 25.82 C15.56 18.89, 8.03 11.85, 2.8 7.45 M23.93 25.82 C16.16 18.52, 8.05 11.79, 2.8 7.45 M25.8 22.15 C21.01 17.15, 15.14 13.58, 4.67 3.78 M25.8 22.15 C20.43 17.56, 15.34 13.16, 4.67 3.78 M28.42 19.13 C21.53 11.81, 13.69 6.79, 8.8 2.07 M28.42 19.13 C22.76 13.36, 16.38 8.47, 8.8 2.07 M28.78 14.14 C25.24 9.47, 20.79 5.9, 12.18 -0.29 M28.78 14.14 C24.61 10.39, 20.9 7.29, 12.18 -0.29 M28.39 8.5 C26.9 6.59, 24.62 4.63, 19.33 0.62 M28.39 8.5 C25.3 5.72, 22.38 3.2, 19.33 0.62" stroke="#000000" stroke-width="0.5" fill="none"></path><path d="M11.53 0.16 C14.42 -0.75, 18.67 0.02, 21.41 1.47 C24.14 2.93, 26.76 6.02, 27.95 8.89 C29.13 11.76, 29.42 15.63, 28.54 18.71 C27.67 21.79, 25.42 25.61, 22.7 27.38 C19.98 29.15, 15.43 29.93, 12.22 29.35 C9.01 28.77, 5.44 26.25, 3.44 23.91 C1.44 21.57, 0.36 18.31, 0.24 15.29 C0.12 12.27, 0.76 8.3, 2.72 5.8 C4.68 3.29, 10.42 1.18, 12 0.28 C13.58 -0.61, 12.09 0.27, 12.21 0.43 M15.83 0.27 C18.85 0.33, 22.94 1.56, 25.09 3.83 C27.24 6.1, 28.43 10.77, 28.73 13.9 C29.04 17.03, 28.7 20.23, 26.92 22.59 C25.13 24.96, 21.05 27.21, 18.02 28.1 C14.98 29, 11.52 29.11, 8.69 27.95 C5.87 26.79, 2.31 23.95, 1.06 21.13 C-0.18 18.31, 0.29 14, 1.24 11.01 C2.19 8.02, 4.36 4.94, 6.78 3.18 C9.21 1.41, 14.31 0.83, 15.79 0.42 C17.27 0.01, 15.7 0.63, 15.68 0.73" stroke="#000000" stroke-width="1" fill="none"></path></g><g stroke-linecap="round" transform="translate(16.860019832263788 45.385137521540855) rotate(0 7.690181452717297 7.679187793502933)"><path d="M7.81 0.45 C9.41 0.51, 11.47 1.22, 12.66 2.28 C13.86 3.34, 14.78 5.17, 14.98 6.8 C15.18 8.43, 14.63 10.73, 13.89 12.04 C13.14 13.35, 11.93 14.13, 10.51 14.67 C9.08 15.22, 6.84 15.78, 5.34 15.31 C3.84 14.83, 2.36 13.29, 1.5 11.84 C0.63 10.38, -0.06 8.19, 0.15 6.59 C0.36 4.99, 1.51 3.38, 2.78 2.24 C4.04 1.1, 6.78 0.06, 7.73 -0.24 C8.69 -0.54, 8.51 0.34, 8.51 0.45 M9.23 0.04 C10.79 0.15, 12.86 0.83, 13.86 2.03 C14.86 3.23, 15.16 5.51, 15.22 7.25 C15.28 8.99, 15.07 11.19, 14.21 12.46 C13.35 13.73, 11.77 14.59, 10.07 14.86 C8.36 15.14, 5.43 14.9, 3.98 14.1 C2.52 13.3, 1.82 11.55, 1.34 10.06 C0.85 8.57, 0.62 6.73, 1.07 5.17 C1.51 3.61, 2.88 1.64, 4.02 0.7 C5.15 -0.23, 7.24 -0.37, 7.88 -0.42 C8.52 -0.48, 7.84 0.12, 7.85 0.37" stroke="none" stroke-width="0" fill="#ffffff"></path><path d="M9.44 -0.05 C10.98 0.18, 12.73 1.5, 13.75 2.78 C14.77 4.06, 15.55 5.88, 15.56 7.63 C15.57 9.38, 15.01 11.95, 13.81 13.27 C12.61 14.6, 10.14 15.51, 8.37 15.57 C6.61 15.64, 4.54 14.57, 3.24 13.66 C1.94 12.76, 1.07 11.59, 0.57 10.13 C0.07 8.67, -0.36 6.43, 0.24 4.89 C0.84 3.35, 2.67 1.68, 4.17 0.91 C5.67 0.13, 8.26 0.39, 9.26 0.24 C10.27 0.09, 10.15 -0.09, 10.21 0 M7.23 -0.68 C8.79 -0.87, 10.5 0.73, 11.93 1.71 C13.37 2.68, 15.39 3.73, 15.84 5.18 C16.29 6.62, 15.38 8.74, 14.64 10.37 C13.9 12, 12.94 14.06, 11.4 14.95 C9.85 15.84, 6.96 16.12, 5.38 15.71 C3.81 15.29, 2.79 13.81, 1.95 12.45 C1.11 11.1, 0.34 9.24, 0.35 7.57 C0.37 5.91, 0.96 3.67, 2.02 2.46 C3.09 1.26, 5.95 0.83, 6.76 0.37 C7.58 -0.1, 6.93 -0.33, 6.91 -0.34" stroke="#000000" stroke-width="1" fill="none"></path></g><g stroke-linecap="round"><g transform="translate(21.986852518419255 32.25019768100083) rotate(0 2.4194003622419586 3.2605184162557634)" fill-rule="evenodd"><path d="M0 0 C0 0, 0 0, 0 0 M0 0 C0 0, 0 0, 0 0 M-0.26 6.4 C1.11 4.97, 2.17 3.66, 4.99 0.36 M-0.26 6.4 C0.81 5.17, 2.02 3.89, 4.99 0.36 M-0.2 6.33 C-0.2 6.33, -0.2 6.33, -0.2 6.33 M-0.2 6.33 C-0.2 6.33, -0.2 6.33, -0.2 6.33 M5.44 5.93 C3.81 4.6, 2.25 3.24, 0.16 1.34 M5.44 5.93 C3.87 4.48, 2.2 2.97, 0.16 1.34 M5.05 0.29 C4.83 0.13, 4.63 -0.05, 4.29 -0.37 M5.05 0.29 C4.88 0.16, 4.75 0.03, 4.29 -0.37" stroke="#000000" stroke-width="0.5" fill="none"></path><path d="M0 0 C0 1.35, 0.02 2.72, 0.02 6.52 M0 0 C-0.1 1.97, 0.08 3.68, 0.02 6.52 M0.02 6.52 C0.23 6.49, 0.41 6.46, 0.6 6.42 M0.02 6.52 C0.19 6.5, 0.35 6.47, 0.6 6.42 M0.6 6.42 C0.75 6.4, 0.87 6.37, 1.18 6.34 M0.6 6.42 C0.79 6.39, 0.99 6.37, 1.18 6.34 M1.18 6.34 C1.35 6.33, 1.52 6.3, 1.76 6.29 M1.18 6.34 C1.37 6.32, 1.57 6.3, 1.76 6.29 M1.76 6.29 C1.89 6.27, 2.04 6.3, 2.36 6.28 M1.76 6.29 C1.94 6.28, 2.12 6.29, 2.36 6.28 M2.36 6.28 C2.54 6.29, 2.69 6.29, 3.01 6.27 M2.36 6.28 C2.55 6.29, 2.75 6.27, 3.01 6.27 M3.01 6.27 C3.15 6.3, 3.31 6.31, 3.68 6.32 M3.01 6.27 C3.19 6.28, 3.36 6.29, 3.68 6.32 M3.68 6.32 C3.82 6.35, 3.98 6.36, 4.26 6.37 M3.68 6.32 C3.8 6.33, 3.94 6.35, 4.26 6.37 M4.26 6.37 C4.43 6.41, 4.61 6.44, 4.81 6.48 M4.26 6.37 C4.43 6.41, 4.59 6.44, 4.81 6.48 M4.81 6.48 C4.94 4.8, 4.81 3.45, 4.82 0.09 M4.81 6.48 C4.78 4.68, 4.82 2.85, 4.82 0.09 M4.82 0.09 C4.65 0.12, 4.5 0.13, 4.13 0.19 M4.82 0.09 C4.65 0.11, 4.47 0.13, 4.13 0.19 M4.13 0.19 C3.93 0.23, 3.75 0.24, 3.55 0.26 M4.13 0.19 C4 0.2, 3.89 0.23, 3.55 0.26 M3.55 0.26 C3.35 0.28, 3.12 0.27, 2.97 0.28 M3.55 0.26 C3.43 0.26, 3.3 0.26, 2.97 0.28 M2.97 0.28 C2.82 0.27, 2.69 0.29, 2.41 0.29 M2.97 0.28 C2.83 0.28, 2.67 0.28, 2.41 0.29 M2.41 0.29 C2.24 0.3, 2.05 0.27, 1.77 0.26 M2.41 0.29 C2.16 0.26, 1.91 0.26, 1.77 0.26 M1.77 0.26 C1.58 0.24, 1.38 0.23, 1.15 0.2 M1.77 0.26 C1.63 0.24, 1.46 0.23, 1.15 0.2 M1.15 0.2 C1.01 0.2, 0.84 0.16, 0.55 0.13 M1.15 0.2 C0.99 0.18, 0.86 0.17, 0.55 0.13 M0.55 0.13 C0.43 0.11, 0.31 0.08, 0 0 M0.55 0.13 C0.4 0.09, 0.25 0.06, 0 0 M0 0 C0 0, 0 0, 0 0 M0 0 C0 0, 0 0, 0 0" stroke="#000000" stroke-width="1" fill="none"></path></g></g><mask></mask><g stroke-linecap="round"><g transform="translate(26.956890460163777 67.37432085945056) rotate(180 -2.408326756288261 3.556599538701448)" fill-rule="evenodd"><path d="M-4.67 -0.08 C-4.67 -0.08, -4.67 -0.08, -4.67 -0.08 M-4.67 -0.08 C-4.67 -0.08, -4.67 -0.08, -4.67 -0.08 M-4.93 6.31 C-3.72 4.96, -2.92 3.54, 0.32 0.28 M-4.93 6.31 C-3.65 4.93, -2.7 3.77, 0.32 0.28 M-0.6 7.43 C-0.43 7.23, -0.21 7.02, 0.06 6.67 M-0.6 7.43 C-0.42 7.23, -0.28 7.07, 0.06 6.67 M-4.82 7.07 C-4.82 7.07, -4.82 7.07, -4.82 7.07 M-4.82 7.07 C-4.82 7.07, -4.82 7.07, -4.82 7.07 M0.82 6.67 C-0.9 5.32, -2.56 3.82, -4.46 2.08 M0.82 6.67 C-0.79 5.27, -2.56 3.81, -4.46 2.08 M0.43 1.03 C0.07 0.82, -0.18 0.53, -1.08 -0.28 M0.43 1.03 C0.1 0.75, -0.26 0.42, -1.08 -0.28" stroke="#000000" stroke-width="0.5" fill="none"></path><path d="M0 0 C0.01 2.66, -0.05 5.42, -0.02 7.11 M0 0 C0.06 2.35, 0.03 4.75, -0.02 7.11 M-0.02 7.11 C-0.15 7.1, -0.26 7.07, -0.6 7 M-0.02 7.11 C-0.16 7.09, -0.29 7.06, -0.6 7 M-0.6 7 C-0.76 6.97, -0.89 6.98, -1.18 6.92 M-0.6 7 C-0.71 6.99, -0.84 6.97, -1.18 6.92 M-1.18 6.92 C-1.38 6.89, -1.62 6.87, -1.76 6.86 M-1.18 6.92 C-1.39 6.89, -1.59 6.87, -1.76 6.86 M-1.76 6.86 C-1.94 6.88, -2.12 6.87, -2.36 6.85 M-1.76 6.86 C-1.89 6.86, -2.05 6.86, -2.36 6.85 M-2.36 6.85 C-2.61 6.86, -2.86 6.86, -3.01 6.84 M-2.36 6.85 C-2.52 6.84, -2.71 6.85, -3.01 6.84 M-3.01 6.84 C-3.27 6.88, -3.53 6.88, -3.68 6.89 M-3.01 6.84 C-3.21 6.85, -3.42 6.86, -3.68 6.89 M-3.68 6.89 C-3.92 6.93, -4.15 6.92, -4.26 6.95 M-3.68 6.89 C-3.83 6.91, -3.96 6.92, -4.26 6.95 M-4.26 6.95 C-4.47 7, -4.69 7.04, -4.81 7.07 M-4.26 6.95 C-4.4 6.99, -4.56 7.02, -4.81 7.07 M-4.81 7.07 C-4.84 4.38, -4.88 1.6, -4.82 0.09 M-4.81 7.07 C-4.81 4.51, -4.88 2.05, -4.82 0.09 M-4.82 0.09 C-4.56 0.12, -4.34 0.18, -4.13 0.21 M-4.82 0.09 C-4.65 0.11, -4.45 0.16, -4.13 0.21 M-4.13 0.21 C-4 0.23, -3.89 0.25, -3.55 0.28 M-4.13 0.21 C-3.97 0.24, -3.81 0.25, -3.55 0.28 M-3.55 0.28 C-3.37 0.28, -3.16 0.29, -2.97 0.3 M-3.55 0.28 C-3.41 0.28, -3.27 0.3, -2.97 0.3 M-2.97 0.3 C-2.77 0.31, -2.58 0.31, -2.41 0.31 M-2.97 0.3 C-2.85 0.3, -2.71 0.3, -2.41 0.31 M-2.41 0.31 C-2.16 0.3, -1.9 0.29, -1.77 0.28 M-2.41 0.31 C-2.24 0.31, -2.1 0.3, -1.77 0.28 M-1.77 0.28 C-1.56 0.27, -1.39 0.26, -1.15 0.22 M-1.77 0.28 C-1.61 0.27, -1.45 0.25, -1.15 0.22 M-1.15 0.22 C-1 0.19, -0.83 0.16, -0.55 0.14 M-1.15 0.22 C-0.98 0.2, -0.84 0.18, -0.55 0.14 M-0.55 0.14 C-0.43 0.12, -0.31 0.1, 0 0 M-0.55 0.14 C-0.44 0.11, -0.31 0.09, 0 0 M0 0 C0 0, 0 0, 0 0 M0 0 C0 0, 0 0, 0 0" stroke="#000000" stroke-width="1" fill="none"></path></g></g><mask></mask><g stroke-linecap="round"><g transform="translate(42.17097922506946 58.730561513449175) rotate(122.79349314644128 -2.407251514019208 3.4349693745366494)" fill-rule="evenodd"><path d="M-4.67 -0.08 C-4.67 -0.08, -4.67 -0.08, -4.67 -0.08 M-4.67 -0.08 C-4.67 -0.08, -4.67 -0.08, -4.67 -0.08 M-4.93 6.31 C-3.81 4.56, -2.38 3.1, 0.32 0.28 M-4.93 6.31 C-3.48 4.65, -1.85 2.61, 0.32 0.28 M0.06 6.67 C0.06 6.67, 0.06 6.67, 0.06 6.67 M0.06 6.67 C0.06 6.67, 0.06 6.67, 0.06 6.67 M-4.7 6.93 C-4.7 6.93, -4.7 6.93, -4.7 6.93 M-4.7 6.93 C-4.7 6.93, -4.7 6.93, -4.7 6.93 M0.19 5.88 C-1.82 4.22, -3.36 2.59, -5.09 1.29 M0.19 5.88 C-1.43 4.57, -3.19 3.04, -5.09 1.29 M0.55 0.89 C0.38 0.77, 0.19 0.61, -0.21 0.24 M0.55 0.89 C0.39 0.76, 0.21 0.61, -0.21 0.24" stroke="#000000" stroke-width="0.5" fill="none"></path><path d="M0 0 C-0.04 1.73, 0.08 3.49, -0.02 6.87 M0 0 C0.07 2.66, -0.11 5.51, -0.02 6.87 M-0.02 6.87 C-0.22 6.84, -0.42 6.8, -0.6 6.76 M-0.02 6.87 C-0.25 6.83, -0.48 6.79, -0.6 6.76 M-0.6 6.76 C-0.77 6.75, -0.97 6.71, -1.18 6.68 M-0.6 6.76 C-0.72 6.76, -0.83 6.74, -1.18 6.68 M-1.18 6.68 C-1.37 6.65, -1.56 6.64, -1.76 6.63 M-1.18 6.68 C-1.32 6.66, -1.45 6.65, -1.76 6.63 M-1.76 6.63 C-1.88 6.65, -2.02 6.64, -2.36 6.62 M-1.76 6.63 C-1.89 6.63, -2 6.63, -2.36 6.62 M-2.36 6.62 C-2.6 6.63, -2.86 6.6, -3.01 6.6 M-2.36 6.62 C-2.62 6.62, -2.85 6.6, -3.01 6.6 M-3.01 6.6 C-3.28 6.62, -3.53 6.65, -3.68 6.65 M-3.01 6.6 C-3.24 6.61, -3.44 6.63, -3.68 6.65 M-3.68 6.65 C-3.93 6.66, -4.16 6.68, -4.26 6.71 M-3.68 6.65 C-3.87 6.68, -4.05 6.69, -4.26 6.71 M-4.26 6.71 C-4.45 6.75, -4.64 6.8, -4.81 6.83 M-4.26 6.71 C-4.49 6.76, -4.69 6.81, -4.81 6.83 M-4.81 6.83 C-4.86 5.25, -4.68 3.75, -4.82 0.09 M-4.81 6.83 C-4.88 4.87, -4.75 2.82, -4.82 0.09 M-4.82 0.09 C-4.59 0.13, -4.35 0.16, -4.13 0.2 M-4.82 0.09 C-4.6 0.14, -4.4 0.16, -4.13 0.2 M-4.13 0.2 C-3.93 0.24, -3.7 0.24, -3.55 0.27 M-4.13 0.2 C-3.98 0.22, -3.83 0.23, -3.55 0.27 M-3.55 0.27 C-3.36 0.27, -3.13 0.28, -2.97 0.29 M-3.55 0.27 C-3.39 0.29, -3.21 0.28, -2.97 0.29 M-2.97 0.29 C-2.85 0.29, -2.71 0.3, -2.41 0.3 M-2.97 0.29 C-2.79 0.29, -2.6 0.31, -2.41 0.3 M-2.41 0.3 C-2.15 0.29, -1.94 0.29, -1.77 0.27 M-2.41 0.3 C-2.27 0.29, -2.14 0.29, -1.77 0.27 M-1.77 0.27 C-1.58 0.27, -1.38 0.25, -1.15 0.21 M-1.77 0.27 C-1.57 0.26, -1.36 0.23, -1.15 0.21 M-1.15 0.21 C-0.93 0.17, -0.69 0.13, -0.55 0.14 M-1.15 0.21 C-1 0.2, -0.84 0.17, -0.55 0.14 M-0.55 0.14 C-0.36 0.1, -0.17 0.04, 0 0 M-0.55 0.14 C-0.39 0.1, -0.24 0.07, 0 0 M0 0 C0 0, 0 0, 0 0 M0 0 C0 0, 0 0, 0 0" stroke="#000000" stroke-width="1" fill="none"></path></g></g><mask></mask><g stroke-linecap="round"><g transform="translate(42.061393129426506 40.9470441828953) rotate(237.9221337988202 -2.2789219722731104 3.263902516118378)" fill-rule="evenodd"><path d="M-4.76 -0.16 C-4.76 -0.16, -4.76 -0.16, -4.76 -0.16 M-4.76 -0.16 C-4.76 -0.16, -4.76 -0.16, -4.76 -0.16 M-4.36 5.48 C-3.24 3.98, -1.77 2.73, 0.23 0.2 M-4.36 5.48 C-3.15 3.96, -1.91 2.58, 0.23 0.2 M-0.03 6.6 C0.16 6.34, 0.38 6.14, 0.63 5.84 M-0.03 6.6 C0.1 6.43, 0.27 6.26, 0.63 5.84 M-4.36 6.53 C-4.36 6.53, -4.36 6.53, -4.36 6.53 M-4.36 6.53 C-4.36 6.53, -4.36 6.53, -4.36 6.53 M1.29 6.14 C-0.49 4.35, -2.38 3.09, -4.75 0.89 M1.29 6.14 C-1.04 4.23, -3.21 2.23, -4.75 0.89" stroke="#000000" stroke-width="0.5" fill="none"></path><path d="M0 0 C0.15 1.46, 0.35 3.46, 0.29 6.57 M0 0 C-0.02 1.66, 0.2 3.15, 0.29 6.57 M0.29 6.57 C0.11 6.52, -0.03 6.46, -0.2 6.42 M0.29 6.57 C0.12 6.52, -0.05 6.46, -0.2 6.42 M-0.2 6.42 C-0.37 6.4, -0.52 6.38, -0.79 6.3 M-0.2 6.42 C-0.39 6.39, -0.59 6.36, -0.79 6.3 M-0.79 6.3 C-0.95 6.28, -1.15 6.25, -1.47 6.24 M-0.79 6.3 C-0.95 6.28, -1.12 6.27, -1.47 6.24 M-1.47 6.24 C-1.72 6.24, -1.96 6.22, -2.08 6.19 M-1.47 6.24 C-1.67 6.23, -1.88 6.21, -2.08 6.19 M-2.08 6.19 C-2.3 6.18, -2.49 6.2, -2.67 6.18 M-2.08 6.19 C-2.23 6.18, -2.39 6.19, -2.67 6.18 M-2.67 6.18 C-2.93 6.19, -3.17 6.2, -3.34 6.19 M-2.67 6.18 C-2.84 6.17, -3.01 6.18, -3.34 6.19 M-3.34 6.19 C-3.61 6.19, -3.85 6.21, -4.02 6.24 M-3.34 6.19 C-3.55 6.21, -3.78 6.23, -4.02 6.24 M-4.02 6.24 C-4.19 6.28, -4.33 6.32, -4.57 6.35 M-4.02 6.24 C-4.19 6.28, -4.39 6.32, -4.57 6.35 M-4.57 6.35 C-4.52 4.35, -4.75 2.5, -4.86 -0.04 M-4.57 6.35 C-4.57 4.6, -4.67 2.94, -4.86 -0.04 M-4.86 -0.04 C-4.7 -0.01, -4.51 0.02, -4.17 0.11 M-4.86 -0.04 C-4.72 -0.01, -4.56 0.02, -4.17 0.11 M-4.17 0.11 C-3.92 0.12, -3.67 0.18, -3.38 0.19 M-4.17 0.11 C-3.87 0.14, -3.57 0.16, -3.38 0.19 M-3.38 0.19 C-3.22 0.19, -3.04 0.2, -2.79 0.22 M-3.38 0.19 C-3.23 0.19, -3.1 0.2, -2.79 0.22 M-2.79 0.22 C-2.62 0.22, -2.42 0.21, -2.22 0.22 M-2.79 0.22 C-2.64 0.23, -2.5 0.22, -2.22 0.22 M-2.22 0.22 C-2.05 0.22, -1.87 0.22, -1.57 0.19 M-2.22 0.22 C-2 0.22, -1.78 0.21, -1.57 0.19 M-1.57 0.19 C-1.36 0.19, -1.13 0.14, -0.95 0.14 M-1.57 0.19 C-1.34 0.17, -1.1 0.14, -0.95 0.14 M-0.95 0.14 C-0.86 0.12, -0.77 0.13, -0.61 0.11 M-0.95 0.14 C-0.84 0.13, -0.72 0.12, -0.61 0.11 M-0.61 0.11 C-0.53 0.1, -0.44 0.09, -0.37 0.08 M-0.61 0.11 C-0.53 0.11, -0.46 0.09, -0.37 0.08 M-0.37 0.08 C-0.29 0.06, -0.18 0.03, 0 0 M-0.37 0.08 C-0.3 0.07, -0.23 0.05, 0 0" stroke="#000000" stroke-width="1" fill="none"></path></g></g><mask></mask></svg>