<svg version="1.1" xmlns="http://www.w3.org/2000/svg" viewBox="0 0 52.285008522332646 50.55949864602121" width="104.57001704466529" height="101.11899729204242">
  <!-- svg-source:excalidraw -->

  <defs>
    <style class="style-fonts">

    </style>

  </defs>
  <g stroke-linecap="round"><g transform="translate(18.556323197124584 14.731396657359255) rotate(0 -1.9198667515775014 2.4326412650265183)" fill-rule="evenodd"><path d="M0 0 C-0.24 -0.07, -0.94 -0.41, -1.44 -0.42 C-1.95 -0.43, -2.61 -0.37, -3.02 -0.05 C-3.44 0.27, -3.77 0.98, -3.94 1.48 C-4.1 1.99, -4.1 2.55, -4.03 3.01 C-3.96 3.46, -3.79 3.84, -3.52 4.22 C-3.24 4.6, -2.79 5.35, -2.35 5.28 C-1.91 5.21, -1.3 4.43, -0.88 3.78 C-0.46 3.13, 0.05 2, 0.19 1.37 C0.34 0.74, 0.03 0.23, 0 0" stroke="none" stroke-width="0" fill="#1b0c02" fill-rule="evenodd"></path><path d="M0 0 C-0.24 -0.07, -0.94 -0.41, -1.44 -0.42 C-1.95 -0.43, -2.61 -0.37, -3.02 -0.05 C-3.44 0.27, -3.77 0.98, -3.94 1.48 C-4.1 1.99, -4.1 2.55, -4.03 3.01 C-3.96 3.46, -3.79 3.84, -3.52 4.22 C-3.24 4.6, -2.79 5.35, -2.35 5.28 C-1.91 5.21, -1.3 4.43, -0.88 3.78 C-0.46 3.13, 0.05 2, 0.19 1.37 C0.34 0.74, 0.03 0.23, 0 0 M0 0 C-0.24 -0.07, -0.94 -0.41, -1.44 -0.42 C-1.95 -0.43, -2.61 -0.37, -3.02 -0.05 C-3.44 0.27, -3.77 0.98, -3.94 1.48 C-4.1 1.99, -4.1 2.55, -4.03 3.01 C-3.96 3.46, -3.79 3.84, -3.52 4.22 C-3.24 4.6, -2.79 5.35, -2.35 5.28 C-1.91 5.21, -1.3 4.43, -0.88 3.78 C-0.46 3.13, 0.05 2, 0.19 1.37 C0.34 0.74, 0.03 0.23, 0 0" stroke="#1c0d02" stroke-width="1" fill="none"></path></g></g><mask></mask><g stroke-linecap="round"><g transform="translate(16.81808204781555 19.38292491048128) rotate(0 0.16716533808084932 -2.0136093968048954)" fill-rule="evenodd"><path d="M0 0 C-0.12 -0.08, -0.54 -0.32, -0.74 -0.5 C-0.93 -0.69, -1.06 -0.86, -1.17 -1.12 C-1.28 -1.38, -1.4 -1.73, -1.39 -2.06 C-1.37 -2.39, -1.28 -2.76, -1.08 -3.07 C-0.89 -3.38, -0.57 -3.78, -0.22 -3.92 C0.13 -4.07, 0.67 -4.06, 1 -3.93 C1.32 -3.8, 1.68 -3.49, 1.72 -3.14 C1.76 -2.78, 1.51 -2.32, 1.22 -1.8 C0.94 -1.27, 0.2 -0.3, 0 0" stroke="none" stroke-width="0" fill="#ba9a66" fill-rule="evenodd"></path><path d="M0 0 C-0.12 -0.08, -0.54 -0.32, -0.74 -0.5 C-0.93 -0.69, -1.06 -0.86, -1.17 -1.12 C-1.28 -1.38, -1.4 -1.73, -1.39 -2.06 C-1.37 -2.39, -1.28 -2.76, -1.08 -3.07 C-0.89 -3.38, -0.57 -3.78, -0.22 -3.92 C0.13 -4.07, 0.67 -4.06, 1 -3.93 C1.32 -3.8, 1.68 -3.49, 1.72 -3.14 C1.76 -2.78, 1.51 -2.32, 1.22 -1.8 C0.94 -1.27, 0.2 -0.3, 0 0 M0 0 C-0.12 -0.08, -0.54 -0.32, -0.74 -0.5 C-0.93 -0.69, -1.06 -0.86, -1.17 -1.12 C-1.28 -1.38, -1.4 -1.73, -1.39 -2.06 C-1.37 -2.39, -1.28 -2.76, -1.08 -3.07 C-0.89 -3.38, -0.57 -3.78, -0.22 -3.92 C0.13 -4.07, 0.67 -4.06, 1 -3.93 C1.32 -3.8, 1.68 -3.49, 1.72 -3.14 C1.76 -2.78, 1.51 -2.32, 1.22 -1.8 C0.94 -1.27, 0.2 -0.3, 0 0" stroke="#b38f59" stroke-width="1" fill="none"></path></g></g><mask></mask><g stroke-linecap="round"><g transform="translate(15.817273445918545 18.76973221606272) rotate(0 12.165801812954669 6.510017106947771)" fill-rule="evenodd"><path d="M0 0 C0.09 -0.44, 0.12 -1.8, 0.56 -2.65 C1 -3.49, 1.75 -4.29, 2.62 -5.04 C3.49 -5.8, 4.63 -6.62, 5.77 -7.2 C6.91 -7.78, 8.21 -8.28, 9.47 -8.54 C10.72 -8.8, 12.05 -8.79, 13.28 -8.74 C14.51 -8.69, 15.67 -8.58, 16.85 -8.22 C18.04 -7.86, 19.39 -7.21, 20.39 -6.56 C21.4 -5.9, 22.09 -5.33, 22.87 -4.31 C23.64 -3.29, 24.49 -1.82, 25.05 -0.44 C25.6 0.94, 25.98 2.44, 26.2 3.97 C26.43 5.5, 26.54 7.14, 26.42 8.76 C26.3 10.39, 25.95 12.31, 25.51 13.74 C25.07 15.17, 24.5 16.34, 23.77 17.35 C23.05 18.37, 22.11 19.2, 21.14 19.83 C20.17 20.46, 18.97 20.82, 17.93 21.14 C16.9 21.45, 15.96 21.62, 14.92 21.72 C13.88 21.82, 12.76 21.81, 11.69 21.73 C10.63 21.64, 9.47 21.46, 8.53 21.23 C7.59 21, 6.89 20.79, 6.04 20.34 C5.2 19.89, 3.96 18.92, 3.48 18.52 C3 18.12, 3.14 18.19, 3.17 17.95 C3.2 17.72, 3.43 17.55, 3.67 17.1 C3.9 16.65, 4.37 15.89, 4.56 15.23 C4.75 14.57, 4.78 13.82, 4.82 13.13 C4.86 12.45, 4.83 11.62, 4.82 11.13 C4.81 10.63, 5.04 10.41, 4.74 10.17 C4.44 9.93, 3.56 9.93, 3.02 9.71 C2.48 9.49, 1.88 9.12, 1.5 8.86 C1.11 8.6, 0.95 8.28, 0.72 8.13 C0.5 7.97, 0.44 8.12, 0.14 7.94 C-0.17 7.76, -0.74 7.54, -1.1 7.06 C-1.46 6.59, -1.86 5.7, -2.02 5.12 C-2.18 4.53, -2.16 4.08, -2.07 3.57 C-1.98 3.05, -1.83 2.6, -1.49 2.01 C-1.14 1.41, -0.25 0.33, 0 0" stroke="none" stroke-width="0" fill="#1b0d02" fill-rule="evenodd"></path><path d="M0 0 C0.09 -0.44, 0.12 -1.8, 0.56 -2.65 C1 -3.49, 1.75 -4.29, 2.62 -5.04 C3.49 -5.8, 4.63 -6.62, 5.77 -7.2 C6.91 -7.78, 8.21 -8.28, 9.47 -8.54 C10.72 -8.8, 12.05 -8.79, 13.28 -8.74 C14.51 -8.69, 15.67 -8.58, 16.85 -8.22 C18.04 -7.86, 19.39 -7.21, 20.39 -6.56 C21.4 -5.9, 22.09 -5.33, 22.87 -4.31 C23.64 -3.29, 24.49 -1.82, 25.05 -0.44 C25.6 0.94, 25.98 2.44, 26.2 3.97 C26.43 5.5, 26.54 7.14, 26.42 8.76 C26.3 10.39, 25.95 12.31, 25.51 13.74 C25.07 15.17, 24.5 16.34, 23.77 17.35 C23.05 18.37, 22.11 19.2, 21.14 19.83 C20.17 20.46, 18.97 20.82, 17.93 21.14 C16.9 21.45, 15.96 21.62, 14.92 21.72 C13.88 21.82, 12.76 21.81, 11.69 21.73 C10.63 21.64, 9.47 21.46, 8.53 21.23 C7.59 21, 6.89 20.79, 6.04 20.34 C5.2 19.89, 3.96 18.92, 3.48 18.52 C3 18.12, 3.14 18.19, 3.17 17.95 C3.2 17.72, 3.43 17.55, 3.67 17.1 C3.9 16.65, 4.37 15.89, 4.56 15.23 C4.75 14.57, 4.78 13.82, 4.82 13.13 C4.86 12.45, 4.83 11.62, 4.82 11.13 C4.81 10.63, 5.04 10.41, 4.74 10.17 C4.44 9.93, 3.56 9.93, 3.02 9.71 C2.48 9.49, 1.88 9.12, 1.5 8.86 C1.11 8.6, 0.95 8.28, 0.72 8.13 C0.5 7.97, 0.44 8.12, 0.14 7.94 C-0.17 7.76, -0.74 7.54, -1.1 7.06 C-1.46 6.59, -1.86 5.7, -2.02 5.12 C-2.18 4.53, -2.16 4.08, -2.07 3.57 C-1.98 3.05, -1.83 2.6, -1.49 2.01 C-1.14 1.41, -0.25 0.33, 0 0 M0 0 C0.09 -0.44, 0.12 -1.8, 0.56 -2.65 C1 -3.49, 1.75 -4.29, 2.62 -5.04 C3.49 -5.8, 4.63 -6.62, 5.77 -7.2 C6.91 -7.78, 8.21 -8.28, 9.47 -8.54 C10.72 -8.8, 12.05 -8.79, 13.28 -8.74 C14.51 -8.69, 15.67 -8.58, 16.85 -8.22 C18.04 -7.86, 19.39 -7.21, 20.39 -6.56 C21.4 -5.9, 22.09 -5.33, 22.87 -4.31 C23.64 -3.29, 24.49 -1.82, 25.05 -0.44 C25.6 0.94, 25.98 2.44, 26.2 3.97 C26.43 5.5, 26.54 7.14, 26.42 8.76 C26.3 10.39, 25.95 12.31, 25.51 13.74 C25.07 15.17, 24.5 16.34, 23.77 17.35 C23.05 18.37, 22.11 19.2, 21.14 19.83 C20.17 20.46, 18.97 20.82, 17.93 21.14 C16.9 21.45, 15.96 21.62, 14.92 21.72 C13.88 21.82, 12.76 21.81, 11.69 21.73 C10.63 21.64, 9.47 21.46, 8.53 21.23 C7.59 21, 6.89 20.79, 6.04 20.34 C5.2 19.89, 3.96 18.92, 3.48 18.52 C3 18.12, 3.14 18.19, 3.17 17.95 C3.2 17.72, 3.43 17.55, 3.67 17.1 C3.9 16.65, 4.37 15.89, 4.56 15.23 C4.75 14.57, 4.78 13.82, 4.82 13.13 C4.86 12.45, 4.83 11.62, 4.82 11.13 C4.81 10.63, 5.04 10.41, 4.74 10.17 C4.44 9.93, 3.56 9.93, 3.02 9.71 C2.48 9.49, 1.88 9.12, 1.5 8.86 C1.11 8.6, 0.95 8.28, 0.72 8.13 C0.5 7.97, 0.44 8.12, 0.14 7.94 C-0.17 7.76, -0.74 7.54, -1.1 7.06 C-1.46 6.59, -1.86 5.7, -2.02 5.12 C-2.18 4.53, -2.16 4.08, -2.07 3.57 C-1.98 3.05, -1.83 2.6, -1.49 2.01 C-1.14 1.41, -0.25 0.33, 0 0" stroke="#1b0d02" stroke-width="1" fill="none"></path></g></g><mask></mask><g stroke-linecap="round"><g transform="translate(16.911567104811184 19.143904440981487) rotate(0 11.142679817929093 6.077869583865663)" fill-rule="evenodd"><path d="M0 0 C0.09 -0.4, 0.11 -1.65, 0.51 -2.42 C0.91 -3.19, 1.61 -3.93, 2.4 -4.62 C3.2 -5.32, 4.24 -6.06, 5.28 -6.59 C6.33 -7.13, 7.52 -7.59, 8.67 -7.82 C9.82 -8.06, 11.04 -8.06, 12.17 -8.01 C13.29 -7.96, 14.35 -7.86, 15.44 -7.53 C16.52 -7.2, 17.76 -6.6, 18.68 -6.01 C19.6 -5.41, 20.24 -4.88, 20.95 -3.95 C21.66 -3.02, 22.43 -1.67, 22.94 -0.4 C23.45 0.86, 23.8 2.23, 24 3.64 C24.21 5.04, 24.29 6.54, 24.2 8.03 C24.12 9.52, 23.84 11.3, 23.5 12.59 C23.16 13.87, 22.78 14.74, 22.14 15.73 C21.5 16.73, 20.83 17.82, 19.68 18.54 C18.52 19.27, 16.5 19.86, 15.21 20.1 C13.92 20.34, 12.77 20.01, 11.95 19.99 C11.13 19.96, 11.04 20.03, 10.28 19.95 C9.53 19.87, 8.16 19.73, 7.42 19.51 C6.68 19.28, 6.17 19.01, 5.83 18.61 C5.5 18.21, 5.56 17.27, 5.4 17.12 C5.24 16.98, 4.91 17.9, 4.86 17.76 C4.81 17.61, 5.05 16.86, 5.11 16.26 C5.17 15.66, 5.17 14.82, 5.23 14.15 C5.29 13.48, 5.58 12.87, 5.48 12.22 C5.39 11.57, 4.84 10.73, 4.65 10.24 C4.46 9.76, 4.66 9.54, 4.35 9.32 C4.03 9.09, 3.22 9.12, 2.77 8.89 C2.31 8.67, 1.93 8.3, 1.62 7.98 C1.32 7.66, 1.24 7.15, 0.96 6.99 C0.68 6.83, 0.29 7.11, -0.05 7.02 C-0.4 6.93, -0.82 6.84, -1.12 6.45 C-1.42 6.06, -1.72 5.22, -1.85 4.69 C-1.98 4.16, -1.98 3.74, -1.89 3.27 C-1.81 2.79, -1.68 2.39, -1.36 1.84 C-1.05 1.3, -0.23 0.31, 0 0" stroke="none" stroke-width="0" fill="#50371d" fill-rule="evenodd"></path><path d="M0 0 C0.09 -0.4, 0.11 -1.65, 0.51 -2.42 C0.91 -3.19, 1.61 -3.93, 2.4 -4.62 C3.2 -5.32, 4.24 -6.06, 5.28 -6.59 C6.33 -7.13, 7.52 -7.59, 8.67 -7.82 C9.82 -8.06, 11.04 -8.06, 12.17 -8.01 C13.29 -7.96, 14.35 -7.86, 15.44 -7.53 C16.52 -7.2, 17.76 -6.6, 18.68 -6.01 C19.6 -5.41, 20.24 -4.88, 20.95 -3.95 C21.66 -3.02, 22.43 -1.67, 22.94 -0.4 C23.45 0.86, 23.8 2.23, 24 3.64 C24.21 5.04, 24.29 6.54, 24.2 8.03 C24.12 9.52, 23.84 11.3, 23.5 12.59 C23.16 13.87, 22.78 14.74, 22.14 15.73 C21.5 16.73, 20.83 17.82, 19.68 18.54 C18.52 19.27, 16.5 19.86, 15.21 20.1 C13.92 20.34, 12.77 20.01, 11.95 19.99 C11.13 19.96, 11.04 20.03, 10.28 19.95 C9.53 19.87, 8.16 19.73, 7.42 19.51 C6.68 19.28, 6.17 19.01, 5.83 18.61 C5.5 18.21, 5.56 17.27, 5.4 17.12 C5.24 16.98, 4.91 17.9, 4.86 17.76 C4.81 17.61, 5.05 16.86, 5.11 16.26 C5.17 15.66, 5.17 14.82, 5.23 14.15 C5.29 13.48, 5.58 12.87, 5.48 12.22 C5.39 11.57, 4.84 10.73, 4.65 10.24 C4.46 9.76, 4.66 9.54, 4.35 9.32 C4.03 9.09, 3.22 9.12, 2.77 8.89 C2.31 8.67, 1.93 8.3, 1.62 7.98 C1.32 7.66, 1.24 7.15, 0.96 6.99 C0.68 6.83, 0.29 7.11, -0.05 7.02 C-0.4 6.93, -0.82 6.84, -1.12 6.45 C-1.42 6.06, -1.72 5.22, -1.85 4.69 C-1.98 4.16, -1.98 3.74, -1.89 3.27 C-1.81 2.79, -1.68 2.39, -1.36 1.84 C-1.05 1.3, -0.23 0.31, 0 0 M0 0 C0.09 -0.4, 0.11 -1.65, 0.51 -2.42 C0.91 -3.19, 1.61 -3.93, 2.4 -4.62 C3.2 -5.32, 4.24 -6.06, 5.28 -6.59 C6.33 -7.13, 7.52 -7.59, 8.67 -7.82 C9.82 -8.06, 11.04 -8.06, 12.17 -8.01 C13.29 -7.96, 14.35 -7.86, 15.44 -7.53 C16.52 -7.2, 17.76 -6.6, 18.68 -6.01 C19.6 -5.41, 20.24 -4.88, 20.95 -3.95 C21.66 -3.02, 22.43 -1.67, 22.94 -0.4 C23.45 0.86, 23.8 2.23, 24 3.64 C24.21 5.04, 24.29 6.54, 24.2 8.03 C24.12 9.52, 23.84 11.3, 23.5 12.59 C23.16 13.87, 22.78 14.74, 22.14 15.73 C21.5 16.73, 20.83 17.82, 19.68 18.54 C18.52 19.27, 16.5 19.86, 15.21 20.1 C13.92 20.34, 12.77 20.01, 11.95 19.99 C11.13 19.96, 11.04 20.03, 10.28 19.95 C9.53 19.87, 8.16 19.73, 7.42 19.51 C6.68 19.28, 6.17 19.01, 5.83 18.61 C5.5 18.21, 5.56 17.27, 5.4 17.12 C5.24 16.98, 4.91 17.9, 4.86 17.76 C4.81 17.61, 5.05 16.86, 5.11 16.26 C5.17 15.66, 5.17 14.82, 5.23 14.15 C5.29 13.48, 5.58 12.87, 5.48 12.22 C5.39 11.57, 4.84 10.73, 4.65 10.24 C4.46 9.76, 4.66 9.54, 4.35 9.32 C4.03 9.09, 3.22 9.12, 2.77 8.89 C2.31 8.67, 1.93 8.3, 1.62 7.98 C1.32 7.66, 1.24 7.15, 0.96 6.99 C0.68 6.83, 0.29 7.11, -0.05 7.02 C-0.4 6.93, -0.82 6.84, -1.12 6.45 C-1.42 6.06, -1.72 5.22, -1.85 4.69 C-1.98 4.16, -1.98 3.74, -1.89 3.27 C-1.81 2.79, -1.68 2.39, -1.36 1.84 C-1.05 1.3, -0.23 0.31, 0 0" stroke="#51381d" stroke-width="1" fill="none"></path></g></g><mask></mask><g stroke-linecap="round"><g transform="translate(33.86342286173567 38.807897336806036) rotate(0 -4.633549465543183 -7.8689998045348375)" fill-rule="evenodd"><path d="M0 0 C0.18 -0.24, 0.64 -0.74, 1.1 -1.46 C1.56 -2.18, 2.29 -3.36, 2.74 -4.32 C3.19 -5.28, 3.51 -6.19, 3.8 -7.23 C4.08 -8.27, 4.36 -9.47, 4.48 -10.56 C4.6 -11.64, 4.61 -12.83, 4.5 -13.73 C4.4 -14.63, 4.09 -15.54, 3.84 -15.98 C3.6 -16.42, 3.46 -16.57, 3.04 -16.38 C2.62 -16.2, 2.17 -15.43, 1.32 -14.87 C0.48 -14.31, -0.79 -13.6, -2.03 -13.02 C-3.26 -12.43, -4.72 -11.76, -6.09 -11.36 C-7.45 -10.96, -9.24 -10.77, -10.23 -10.62 C-11.21 -10.47, -11.6 -10.53, -11.98 -10.46 C-12.36 -10.38, -12.43 -10.49, -12.49 -10.17 C-12.56 -9.85, -12.41 -9.09, -12.39 -8.52 C-12.36 -7.94, -12.32 -7.3, -12.35 -6.7 C-12.37 -6.11, -12.42 -5.45, -12.54 -4.94 C-12.66 -4.42, -12.89 -3.98, -13.06 -3.59 C-13.24 -3.21, -13.45 -2.86, -13.58 -2.61 C-13.71 -2.36, -13.85 -2.22, -13.84 -2.08 C-13.83 -1.94, -13.81 -1.96, -13.52 -1.76 C-13.23 -1.56, -12.68 -1.19, -12.12 -0.89 C-11.55 -0.6, -10.88 -0.24, -10.13 0 C-9.38 0.24, -8.45 0.42, -7.62 0.54 C-6.79 0.66, -5.95 0.73, -5.14 0.72 C-4.33 0.72, -3.6 0.61, -2.74 0.49 C-1.89 0.37, -0.46 0.08, 0 0" stroke="none" stroke-width="0" fill="#b7945e" fill-rule="evenodd"></path><path d="M0 0 C0.18 -0.24, 0.64 -0.74, 1.1 -1.46 C1.56 -2.18, 2.29 -3.36, 2.74 -4.32 C3.19 -5.28, 3.51 -6.19, 3.8 -7.23 C4.08 -8.27, 4.36 -9.47, 4.48 -10.56 C4.6 -11.64, 4.61 -12.83, 4.5 -13.73 C4.4 -14.63, 4.09 -15.54, 3.84 -15.98 C3.6 -16.42, 3.46 -16.57, 3.04 -16.38 C2.62 -16.2, 2.17 -15.43, 1.32 -14.87 C0.48 -14.31, -0.79 -13.6, -2.03 -13.02 C-3.26 -12.43, -4.72 -11.76, -6.09 -11.36 C-7.45 -10.96, -9.24 -10.77, -10.23 -10.62 C-11.21 -10.47, -11.6 -10.53, -11.98 -10.46 C-12.36 -10.38, -12.43 -10.49, -12.49 -10.17 C-12.56 -9.85, -12.41 -9.09, -12.39 -8.52 C-12.36 -7.94, -12.32 -7.3, -12.35 -6.7 C-12.37 -6.11, -12.42 -5.45, -12.54 -4.94 C-12.66 -4.42, -12.89 -3.98, -13.06 -3.59 C-13.24 -3.21, -13.45 -2.86, -13.58 -2.61 C-13.71 -2.36, -13.85 -2.22, -13.84 -2.08 C-13.83 -1.94, -13.81 -1.96, -13.52 -1.76 C-13.23 -1.56, -12.68 -1.19, -12.12 -0.89 C-11.55 -0.6, -10.88 -0.24, -10.13 0 C-9.38 0.24, -8.45 0.42, -7.62 0.54 C-6.79 0.66, -5.95 0.73, -5.14 0.72 C-4.33 0.72, -3.6 0.61, -2.74 0.49 C-1.89 0.37, -0.46 0.08, 0 0 M0 0 C0.18 -0.24, 0.64 -0.74, 1.1 -1.46 C1.56 -2.18, 2.29 -3.36, 2.74 -4.32 C3.19 -5.28, 3.51 -6.19, 3.8 -7.23 C4.08 -8.27, 4.36 -9.47, 4.48 -10.56 C4.6 -11.64, 4.61 -12.83, 4.5 -13.73 C4.4 -14.63, 4.09 -15.54, 3.84 -15.98 C3.6 -16.42, 3.46 -16.57, 3.04 -16.38 C2.62 -16.2, 2.17 -15.43, 1.32 -14.87 C0.48 -14.31, -0.79 -13.6, -2.03 -13.02 C-3.26 -12.43, -4.72 -11.76, -6.09 -11.36 C-7.45 -10.96, -9.24 -10.77, -10.23 -10.62 C-11.21 -10.47, -11.6 -10.53, -11.98 -10.46 C-12.36 -10.38, -12.43 -10.49, -12.49 -10.17 C-12.56 -9.85, -12.41 -9.09, -12.39 -8.52 C-12.36 -7.94, -12.32 -7.3, -12.35 -6.7 C-12.37 -6.11, -12.42 -5.45, -12.54 -4.94 C-12.66 -4.42, -12.89 -3.98, -13.06 -3.59 C-13.24 -3.21, -13.45 -2.86, -13.58 -2.61 C-13.71 -2.36, -13.85 -2.22, -13.84 -2.08 C-13.83 -1.94, -13.81 -1.96, -13.52 -1.76 C-13.23 -1.56, -12.68 -1.19, -12.12 -0.89 C-11.55 -0.6, -10.88 -0.24, -10.13 0 C-9.38 0.24, -8.45 0.42, -7.62 0.54 C-6.79 0.66, -5.95 0.73, -5.14 0.72 C-4.33 0.72, -3.6 0.61, -2.74 0.49 C-1.89 0.37, -0.46 0.08, 0 0" stroke="#b7945e" stroke-width="1" fill="none"></path></g></g><mask></mask><g stroke-linecap="round"><g transform="translate(22.37409252008547 21.087847203099727) rotate(0 4.112651420913608 0.5044282937524258)" fill-rule="evenodd"><path d="M0 0 C-0.4 -0.06, -1.63 -0.22, -2.41 -0.33 C-3.19 -0.45, -4 -0.66, -4.67 -0.69 C-5.34 -0.71, -5.95 -0.67, -6.42 -0.48 C-6.89 -0.29, -7.26 -0.04, -7.48 0.47 C-7.69 0.98, -7.76 1.99, -7.71 2.57 C-7.65 3.16, -7.41 3.6, -7.14 3.98 C-6.88 4.36, -6.62 4.52, -6.13 4.86 C-5.64 5.21, -5 5.65, -4.21 6.04 C-3.42 6.43, -2.42 6.94, -1.38 7.21 C-0.33 7.48, 0.92 7.61, 2.07 7.66 C3.22 7.71, 4.37 7.69, 5.55 7.51 C6.72 7.34, 8.1 6.91, 9.12 6.61 C10.14 6.3, 10.78 6.08, 11.68 5.66 C12.57 5.24, 13.93 4.86, 14.49 4.09 C15.04 3.32, 14.78 1.29, 15 1.05 C15.23 0.8, 15.71 2.76, 15.85 2.64 C15.98 2.52, 15.99 1.04, 15.82 0.33 C15.66 -0.39, 15.29 -1.03, 14.84 -1.66 C14.38 -2.28, 13.6 -2.75, 13.07 -3.4 C12.54 -4.05, 12.32 -5.01, 11.64 -5.55 C10.97 -6.09, 10.02 -6.52, 9 -6.63 C7.99 -6.74, 6.61 -6.67, 5.55 -6.23 C4.49 -5.78, 3.38 -4.73, 2.64 -3.96 C1.9 -3.2, 1.14 -2.07, 1.11 -1.61 C1.07 -1.16, 1.91 -1.56, 2.43 -1.24 C2.96 -0.92, 4.66 0.1, 4.25 0.31 C3.85 0.51, 0.71 0.05, 0 0" stroke="none" stroke-width="0" fill="#f5eee3" fill-rule="evenodd"></path><path d="M0 0 C-0.4 -0.06, -1.63 -0.22, -2.41 -0.33 C-3.19 -0.45, -4 -0.66, -4.67 -0.69 C-5.34 -0.71, -5.95 -0.67, -6.42 -0.48 C-6.89 -0.29, -7.26 -0.04, -7.48 0.47 C-7.69 0.98, -7.76 1.99, -7.71 2.57 C-7.65 3.16, -7.41 3.6, -7.14 3.98 C-6.88 4.36, -6.62 4.52, -6.13 4.86 C-5.64 5.21, -5 5.65, -4.21 6.04 C-3.42 6.43, -2.42 6.94, -1.38 7.21 C-0.33 7.48, 0.92 7.61, 2.07 7.66 C3.22 7.71, 4.37 7.69, 5.55 7.51 C6.72 7.34, 8.1 6.91, 9.12 6.61 C10.14 6.3, 10.78 6.08, 11.68 5.66 C12.57 5.24, 13.93 4.86, 14.49 4.09 C15.04 3.32, 14.78 1.29, 15 1.05 C15.23 0.8, 15.71 2.76, 15.85 2.64 C15.98 2.52, 15.99 1.04, 15.82 0.33 C15.66 -0.39, 15.29 -1.03, 14.84 -1.66 C14.38 -2.28, 13.6 -2.75, 13.07 -3.4 C12.54 -4.05, 12.32 -5.01, 11.64 -5.55 C10.97 -6.09, 10.02 -6.52, 9 -6.63 C7.99 -6.74, 6.61 -6.67, 5.55 -6.23 C4.49 -5.78, 3.38 -4.73, 2.64 -3.96 C1.9 -3.2, 1.14 -2.07, 1.11 -1.61 C1.07 -1.16, 1.91 -1.56, 2.43 -1.24 C2.96 -0.92, 4.66 0.1, 4.25 0.31 C3.85 0.51, 0.71 0.05, 0 0 M0 0 C-0.4 -0.06, -1.63 -0.22, -2.41 -0.33 C-3.19 -0.45, -4 -0.66, -4.67 -0.69 C-5.34 -0.71, -5.95 -0.67, -6.42 -0.48 C-6.89 -0.29, -7.26 -0.04, -7.48 0.47 C-7.69 0.98, -7.76 1.99, -7.71 2.57 C-7.65 3.16, -7.41 3.6, -7.14 3.98 C-6.88 4.36, -6.62 4.52, -6.13 4.86 C-5.64 5.21, -5 5.65, -4.21 6.04 C-3.42 6.43, -2.42 6.94, -1.38 7.21 C-0.33 7.48, 0.92 7.61, 2.07 7.66 C3.22 7.71, 4.37 7.69, 5.55 7.51 C6.72 7.34, 8.1 6.91, 9.12 6.61 C10.14 6.3, 10.78 6.08, 11.68 5.66 C12.57 5.24, 13.93 4.86, 14.49 4.09 C15.04 3.32, 14.78 1.29, 15 1.05 C15.23 0.8, 15.71 2.76, 15.85 2.64 C15.98 2.52, 15.99 1.04, 15.82 0.33 C15.66 -0.39, 15.29 -1.03, 14.84 -1.66 C14.38 -2.28, 13.6 -2.75, 13.07 -3.4 C12.54 -4.05, 12.32 -5.01, 11.64 -5.55 C10.97 -6.09, 10.02 -6.52, 9 -6.63 C7.99 -6.74, 6.61 -6.67, 5.55 -6.23 C4.49 -5.78, 3.38 -4.73, 2.64 -3.96 C1.9 -3.2, 1.14 -2.07, 1.11 -1.61 C1.07 -1.16, 1.91 -1.56, 2.43 -1.24 C2.96 -0.92, 4.66 0.1, 4.25 0.31 C3.85 0.51, 0.71 0.05, 0 0" stroke="#f4f2e9" stroke-width="1" fill="none"></path></g></g><mask></mask><g stroke-linecap="round"><g transform="translate(35.620626646346864 14.37254287521705) rotate(0 3.076278510395241 1.4479141555283377)" fill-rule="evenodd"><path d="M0 0 C0.15 -0.14, 0.53 -0.57, 0.91 -0.83 C1.28 -1.1, 1.77 -1.46, 2.25 -1.6 C2.73 -1.75, 3.31 -1.76, 3.79 -1.72 C4.26 -1.67, 4.73 -1.55, 5.1 -1.31 C5.46 -1.08, 5.8 -0.73, 5.97 -0.28 C6.15 0.17, 6.16 0.9, 6.15 1.4 C6.14 1.91, 6.05 2.36, 5.9 2.76 C5.75 3.16, 5.55 3.48, 5.26 3.79 C4.98 4.1, 4.51 4.64, 4.17 4.64 C3.83 4.63, 3.43 4.07, 3.22 3.75 C3.01 3.42, 3.09 3.03, 2.88 2.69 C2.67 2.36, 2.29 2.01, 1.97 1.74 C1.65 1.47, 1.3 1.34, 0.97 1.05 C0.64 0.76, 0.16 0.18, 0 0" stroke="none" stroke-width="0" fill="#1b0c02" fill-rule="evenodd"></path><path d="M0 0 C0.15 -0.14, 0.53 -0.57, 0.91 -0.83 C1.28 -1.1, 1.77 -1.46, 2.25 -1.6 C2.73 -1.75, 3.31 -1.76, 3.79 -1.72 C4.26 -1.67, 4.73 -1.55, 5.1 -1.31 C5.46 -1.08, 5.8 -0.73, 5.97 -0.28 C6.15 0.17, 6.16 0.9, 6.15 1.4 C6.14 1.91, 6.05 2.36, 5.9 2.76 C5.75 3.16, 5.55 3.48, 5.26 3.79 C4.98 4.1, 4.51 4.64, 4.17 4.64 C3.83 4.63, 3.43 4.07, 3.22 3.75 C3.01 3.42, 3.09 3.03, 2.88 2.69 C2.67 2.36, 2.29 2.01, 1.97 1.74 C1.65 1.47, 1.3 1.34, 0.97 1.05 C0.64 0.76, 0.16 0.18, 0 0 M0 0 C0.15 -0.14, 0.53 -0.57, 0.91 -0.83 C1.28 -1.1, 1.77 -1.46, 2.25 -1.6 C2.73 -1.75, 3.31 -1.76, 3.79 -1.72 C4.26 -1.67, 4.73 -1.55, 5.1 -1.31 C5.46 -1.08, 5.8 -0.73, 5.97 -0.28 C6.15 0.17, 6.16 0.9, 6.15 1.4 C6.14 1.91, 6.05 2.36, 5.9 2.76 C5.75 3.16, 5.55 3.48, 5.26 3.79 C4.98 4.1, 4.51 4.64, 4.17 4.64 C3.83 4.63, 3.43 4.07, 3.22 3.75 C3.01 3.42, 3.09 3.03, 2.88 2.69 C2.67 2.36, 2.29 2.01, 1.97 1.74 C1.65 1.47, 1.3 1.34, 0.97 1.05 C0.64 0.76, 0.16 0.18, 0 0" stroke="#1c0d02" stroke-width="1" fill="none"></path></g></g><mask></mask><g stroke-linecap="round"><g transform="translate(36.61988733217913 15.31885968621441) rotate(0 1.905455317400083 0.62386983785143)" fill-rule="evenodd"><path d="M0 0 C0.12 -0.12, 0.46 -0.52, 0.72 -0.72 C0.98 -0.92, 1.26 -1.12, 1.56 -1.22 C1.87 -1.31, 2.29 -1.32, 2.56 -1.29 C2.83 -1.26, 2.99 -1.18, 3.19 -1.03 C3.38 -0.88, 3.63 -0.67, 3.73 -0.37 C3.83 -0.07, 3.82 0.44, 3.78 0.75 C3.73 1.06, 3.58 1.27, 3.46 1.49 C3.33 1.71, 3.24 1.89, 3.02 2.07 C2.8 2.24, 2.36 2.57, 2.15 2.55 C1.93 2.53, 1.85 2.18, 1.73 1.96 C1.61 1.73, 1.63 1.43, 1.43 1.2 C1.23 0.97, 0.75 0.79, 0.52 0.59 C0.28 0.39, 0.09 0.1, 0 0.01" stroke="none" stroke-width="0" fill="#f5eee3" fill-rule="evenodd"></path><path d="M0 0 C0.12 -0.12, 0.46 -0.52, 0.72 -0.72 C0.98 -0.92, 1.26 -1.12, 1.56 -1.22 C1.87 -1.31, 2.29 -1.32, 2.56 -1.29 C2.83 -1.26, 2.99 -1.18, 3.19 -1.03 C3.38 -0.88, 3.63 -0.67, 3.73 -0.37 C3.83 -0.07, 3.82 0.44, 3.78 0.75 C3.73 1.06, 3.58 1.27, 3.46 1.49 C3.33 1.71, 3.24 1.89, 3.02 2.07 C2.8 2.24, 2.36 2.57, 2.15 2.55 C1.93 2.53, 1.85 2.18, 1.73 1.96 C1.61 1.73, 1.63 1.43, 1.43 1.2 C1.23 0.97, 0.75 0.79, 0.52 0.59 C0.28 0.39, 0.09 0.1, 0 0.01 M0 0 C0.12 -0.12, 0.46 -0.52, 0.72 -0.72 C0.98 -0.92, 1.26 -1.12, 1.56 -1.22 C1.87 -1.31, 2.29 -1.32, 2.56 -1.29 C2.83 -1.26, 2.99 -1.18, 3.19 -1.03 C3.38 -0.88, 3.63 -0.67, 3.73 -0.37 C3.83 -0.07, 3.82 0.44, 3.78 0.75 C3.73 1.06, 3.58 1.27, 3.46 1.49 C3.33 1.71, 3.24 1.89, 3.02 2.07 C2.8 2.24, 2.36 2.57, 2.15 2.55 C1.93 2.53, 1.85 2.18, 1.73 1.96 C1.61 1.73, 1.63 1.43, 1.43 1.2 C1.23 0.97, 0.75 0.79, 0.52 0.59 C0.28 0.39, 0.09 0.1, 0 0.01" stroke="#f4f2e9" stroke-width="1" fill="none"></path></g></g><mask></mask><g stroke-linecap="round"><g transform="translate(37.328497875641915 16.041349426657007) rotate(0 1.137829269183385 0.08936212669345878)" fill-rule="evenodd"><path d="M0 0 C0.07 -0.09, 0.24 -0.37, 0.43 -0.53 C0.61 -0.68, 0.84 -0.82, 1.09 -0.9 C1.35 -0.98, 1.78 -1.08, 1.98 -0.99 C2.17 -0.9, 2.25 -0.6, 2.27 -0.35 C2.29 -0.1, 2.2 0.28, 2.09 0.49 C1.98 0.71, 1.79 0.84, 1.61 0.96 C1.43 1.07, 1.18 1.26, 1.02 1.19 C0.87 1.12, 0.84 0.73, 0.67 0.53 C0.5 0.33, 0.11 0.09, 0 0" stroke="none" stroke-width="0" fill="#1b0c02" fill-rule="evenodd"></path><path d="M0 0 C0.07 -0.09, 0.24 -0.37, 0.43 -0.53 C0.61 -0.68, 0.84 -0.82, 1.09 -0.9 C1.35 -0.98, 1.78 -1.08, 1.98 -0.99 C2.17 -0.9, 2.25 -0.6, 2.27 -0.35 C2.29 -0.1, 2.2 0.28, 2.09 0.49 C1.98 0.71, 1.79 0.84, 1.61 0.96 C1.43 1.07, 1.18 1.26, 1.02 1.19 C0.87 1.12, 0.84 0.73, 0.67 0.53 C0.5 0.33, 0.11 0.09, 0 0 M0 0 C0.07 -0.09, 0.24 -0.37, 0.43 -0.53 C0.61 -0.68, 0.84 -0.82, 1.09 -0.9 C1.35 -0.98, 1.78 -1.08, 1.98 -0.99 C2.17 -0.9, 2.25 -0.6, 2.27 -0.35 C2.29 -0.1, 2.2 0.28, 2.09 0.49 C1.98 0.71, 1.79 0.84, 1.61 0.96 C1.43 1.07, 1.18 1.26, 1.02 1.19 C0.87 1.12, 0.84 0.73, 0.67 0.53 C0.5 0.33, 0.11 0.09, 0 0" stroke="#1c0d02" stroke-width="1" fill="none"></path></g></g><mask></mask><g stroke-linecap="round"><g transform="translate(18.632159725637393 23.638146646905852) rotate(0 -0.43024285018691444 -2.054241616588115)" fill-rule="evenodd"><path d="M0 0 C-0.26 -0.04, -1.13 0, -1.58 -0.21 C-2.02 -0.42, -2.39 -0.93, -2.67 -1.26 C-2.95 -1.6, -3.14 -1.94, -3.24 -2.23 C-3.33 -2.51, -3.42 -2.69, -3.22 -2.98 C-3.03 -3.27, -2.57 -3.77, -2.07 -3.95 C-1.57 -4.13, -0.86 -4.13, -0.23 -4.08 C0.39 -4.02, 1.26 -3.86, 1.7 -3.63 C2.15 -3.4, 2.34 -3.05, 2.43 -2.71 C2.52 -2.37, 2.5 -1.98, 2.23 -1.58 C1.97 -1.18, 1.23 -0.58, 0.86 -0.31 C0.48 -0.05, 0.14 -0.05, 0 0" stroke="none" stroke-width="0" fill="#1b0d02" fill-rule="evenodd"></path><path d="M0 0 C-0.26 -0.04, -1.13 0, -1.58 -0.21 C-2.02 -0.42, -2.39 -0.93, -2.67 -1.26 C-2.95 -1.6, -3.14 -1.94, -3.24 -2.23 C-3.33 -2.51, -3.42 -2.69, -3.22 -2.98 C-3.03 -3.27, -2.57 -3.77, -2.07 -3.95 C-1.57 -4.13, -0.86 -4.13, -0.23 -4.08 C0.39 -4.02, 1.26 -3.86, 1.7 -3.63 C2.15 -3.4, 2.34 -3.05, 2.43 -2.71 C2.52 -2.37, 2.5 -1.98, 2.23 -1.58 C1.97 -1.18, 1.23 -0.58, 0.86 -0.31 C0.48 -0.05, 0.14 -0.05, 0 0 M0 0 C-0.26 -0.04, -1.13 0, -1.58 -0.21 C-2.02 -0.42, -2.39 -0.93, -2.67 -1.26 C-2.95 -1.6, -3.14 -1.94, -3.24 -2.23 C-3.33 -2.51, -3.42 -2.69, -3.22 -2.98 C-3.03 -3.27, -2.57 -3.77, -2.07 -3.95 C-1.57 -4.13, -0.86 -4.13, -0.23 -4.08 C0.39 -4.02, 1.26 -3.86, 1.7 -3.63 C2.15 -3.4, 2.34 -3.05, 2.43 -2.71 C2.52 -2.37, 2.5 -1.98, 2.23 -1.58 C1.97 -1.18, 1.23 -0.58, 0.86 -0.31 C0.48 -0.05, 0.14 -0.05, 0 0" stroke="#1b0d02" stroke-width="1" fill="none"></path></g></g><mask></mask><g stroke-linecap="round"><g transform="translate(16.334879206708138 20.731681057278365) rotate(0 1.6258724194667593 -0.07198980070791094)" fill-rule="evenodd"><path d="M0 0 C0.12 -0.06, 0.41 -0.31, 0.75 -0.38 C1.08 -0.45, 1.6 -0.47, 2.02 -0.45 C2.44 -0.42, 3.11 -0.34, 3.27 -0.22 C3.42 -0.09, 3.23 0.22, 2.94 0.29 C2.65 0.37, 1.89 0.23, 1.54 0.23 C1.19 0.24, 1.12 0.31, 0.86 0.31 C0.6 0.31, 0.14 0.27, -0.01 0.22 C-0.15 0.17, 0 0.04, 0 0" stroke="none" stroke-width="0" fill="#f5eee3" fill-rule="evenodd"></path><path d="M0 0 C0.12 -0.06, 0.41 -0.31, 0.75 -0.38 C1.08 -0.45, 1.6 -0.47, 2.02 -0.45 C2.44 -0.42, 3.11 -0.34, 3.27 -0.22 C3.42 -0.09, 3.23 0.22, 2.94 0.29 C2.65 0.37, 1.89 0.23, 1.54 0.23 C1.19 0.24, 1.12 0.31, 0.86 0.31 C0.6 0.31, 0.14 0.27, -0.01 0.22 C-0.15 0.17, 0 0.04, 0 0 M0 0 C0.12 -0.06, 0.41 -0.31, 0.75 -0.38 C1.08 -0.45, 1.6 -0.47, 2.02 -0.45 C2.44 -0.42, 3.11 -0.34, 3.27 -0.22 C3.42 -0.09, 3.23 0.22, 2.94 0.29 C2.65 0.37, 1.89 0.23, 1.54 0.23 C1.19 0.24, 1.12 0.31, 0.86 0.31 C0.6 0.31, 0.14 0.27, -0.01 0.22 C-0.15 0.17, 0 0.04, 0 0" stroke="#f5eee3" stroke-width="1" fill="none"></path></g></g><mask></mask><g stroke-linecap="round"><g transform="translate(16.207848564647065 26.298989546765824) rotate(0 5.48847412820669 -1.0423507693258216)" fill-rule="evenodd"><path d="M0 0 C0.04 -0.14, 0.07 -0.57, 0.24 -0.83 C0.42 -1.08, 0.77 -1.36, 1.04 -1.54 C1.3 -1.72, 1.7 -1.69, 1.83 -1.9 C1.95 -2.12, 1.72 -2.88, 1.79 -2.84 C1.86 -2.8, 1.91 -2.06, 2.28 -1.69 C2.64 -1.32, 3.46 -0.92, 3.99 -0.63 C4.53 -0.35, 4.93 -0.16, 5.5 0.01 C6.07 0.18, 6.81 0.34, 7.4 0.37 C7.99 0.4, 8.57 0.31, 9.02 0.21 C9.47 0.11, 9.81 -0.04, 10.12 -0.22 C10.43 -0.4, 10.74 -0.8, 10.88 -0.87 C11.02 -0.94, 10.96 -0.69, 10.97 -0.62 C10.97 -0.55, 10.98 -0.55, 10.91 -0.47 C10.85 -0.38, 10.88 -0.27, 10.57 -0.1 C10.25 0.07, 9.53 0.4, 9.03 0.55 C8.52 0.69, 8 0.76, 7.52 0.76 C7.05 0.75, 6.66 0.65, 6.16 0.52 C5.67 0.39, 5.02 0.17, 4.57 -0.03 C4.13 -0.23, 3.81 -0.49, 3.48 -0.68 C3.14 -0.87, 2.87 -1.05, 2.57 -1.17 C2.27 -1.3, 1.95 -1.43, 1.68 -1.42 C1.41 -1.41, 1.11 -1.25, 0.92 -1.12 C0.73 -0.99, 0.61 -0.89, 0.54 -0.65 C0.48 -0.42, 0.63 0.16, 0.54 0.27 C0.45 0.38, 0.09 0.04, 0 0" stroke="none" stroke-width="0" fill="#1b0d03" fill-rule="evenodd"></path><path d="M0 0 C0.04 -0.14, 0.07 -0.57, 0.24 -0.83 C0.42 -1.08, 0.77 -1.36, 1.04 -1.54 C1.3 -1.72, 1.7 -1.69, 1.83 -1.9 C1.95 -2.12, 1.72 -2.88, 1.79 -2.84 C1.86 -2.8, 1.91 -2.06, 2.28 -1.69 C2.64 -1.32, 3.46 -0.92, 3.99 -0.63 C4.53 -0.35, 4.93 -0.16, 5.5 0.01 C6.07 0.18, 6.81 0.34, 7.4 0.37 C7.99 0.4, 8.57 0.31, 9.02 0.21 C9.47 0.11, 9.81 -0.04, 10.12 -0.22 C10.43 -0.4, 10.74 -0.8, 10.88 -0.87 C11.02 -0.94, 10.96 -0.69, 10.97 -0.62 C10.97 -0.55, 10.98 -0.55, 10.91 -0.47 C10.85 -0.38, 10.88 -0.27, 10.57 -0.1 C10.25 0.07, 9.53 0.4, 9.03 0.55 C8.52 0.69, 8 0.76, 7.52 0.76 C7.05 0.75, 6.66 0.65, 6.16 0.52 C5.67 0.39, 5.02 0.17, 4.57 -0.03 C4.13 -0.23, 3.81 -0.49, 3.48 -0.68 C3.14 -0.87, 2.87 -1.05, 2.57 -1.17 C2.27 -1.3, 1.95 -1.43, 1.68 -1.42 C1.41 -1.41, 1.11 -1.25, 0.92 -1.12 C0.73 -0.99, 0.61 -0.89, 0.54 -0.65 C0.48 -0.42, 0.63 0.16, 0.54 0.27 C0.45 0.38, 0.09 0.04, 0 0 M0 0 C0.04 -0.14, 0.07 -0.57, 0.24 -0.83 C0.42 -1.08, 0.77 -1.36, 1.04 -1.54 C1.3 -1.72, 1.7 -1.69, 1.83 -1.9 C1.95 -2.12, 1.72 -2.88, 1.79 -2.84 C1.86 -2.8, 1.91 -2.06, 2.28 -1.69 C2.64 -1.32, 3.46 -0.92, 3.99 -0.63 C4.53 -0.35, 4.93 -0.16, 5.5 0.01 C6.07 0.18, 6.81 0.34, 7.4 0.37 C7.99 0.4, 8.57 0.31, 9.02 0.21 C9.47 0.11, 9.81 -0.04, 10.12 -0.22 C10.43 -0.4, 10.74 -0.8, 10.88 -0.87 C11.02 -0.94, 10.96 -0.69, 10.97 -0.62 C10.97 -0.55, 10.98 -0.55, 10.91 -0.47 C10.85 -0.38, 10.88 -0.27, 10.57 -0.1 C10.25 0.07, 9.53 0.4, 9.03 0.55 C8.52 0.69, 8 0.76, 7.52 0.76 C7.05 0.75, 6.66 0.65, 6.16 0.52 C5.67 0.39, 5.02 0.17, 4.57 -0.03 C4.13 -0.23, 3.81 -0.49, 3.48 -0.68 C3.14 -0.87, 2.87 -1.05, 2.57 -1.17 C2.27 -1.3, 1.95 -1.43, 1.68 -1.42 C1.41 -1.41, 1.11 -1.25, 0.92 -1.12 C0.73 -0.99, 0.61 -0.89, 0.54 -0.65 C0.48 -0.42, 0.63 0.16, 0.54 0.27 C0.45 0.38, 0.09 0.04, 0 0" stroke="#1c0c02" stroke-width="1" fill="none"></path></g></g><mask></mask><g stroke-linecap="round"><g transform="translate(27.233681578854885 21.06964066884848) rotate(0 1.7509718032961246 -2.8020675865410567)" fill-rule="evenodd"><path d="M0 0 C-0.12 -0.06, -0.47 -0.21, -0.73 -0.37 C-0.98 -0.54, -1.32 -0.81, -1.55 -1 C-1.77 -1.19, -1.9 -1.47, -2.08 -1.53 C-2.26 -1.58, -2.47 -1.34, -2.62 -1.32 C-2.77 -1.3, -2.91 -1.35, -2.98 -1.43 C-3.04 -1.51, -3.08 -1.63, -2.99 -1.81 C-2.9 -2, -2.65 -2.28, -2.44 -2.54 C-2.24 -2.79, -2 -3.09, -1.76 -3.35 C-1.51 -3.61, -1.31 -3.82, -1 -4.09 C-0.7 -4.37, -0.32 -4.74, 0.08 -4.98 C0.47 -5.23, 0.92 -5.44, 1.37 -5.58 C1.81 -5.72, 2.25 -5.8, 2.74 -5.82 C3.22 -5.84, 3.84 -5.77, 4.27 -5.69 C4.7 -5.6, 4.97 -5.47, 5.32 -5.33 C5.68 -5.18, 6.19 -4.95, 6.39 -4.81 C6.6 -4.66, 6.53 -4.58, 6.53 -4.46 C6.54 -4.34, 6.58 -4.13, 6.44 -4.09 C6.3 -4.06, 5.86 -4.23, 5.7 -4.25 C5.54 -4.27, 5.5 -4.37, 5.47 -4.21 C5.45 -4.06, 5.56 -3.66, 5.56 -3.31 C5.56 -2.95, 5.59 -2.45, 5.49 -2.09 C5.39 -1.73, 5.21 -1.43, 4.97 -1.14 C4.73 -0.85, 4.37 -0.54, 4.05 -0.35 C3.72 -0.15, 3.38 -0.06, 3.04 0.03 C2.71 0.12, 2.38 0.16, 2.02 0.19 C1.66 0.22, 1.2 0.23, 0.86 0.2 C0.52 0.17, 0.14 0.03, 0 0" stroke="none" stroke-width="0" fill="#1b0d03" fill-rule="evenodd"></path><path d="M0 0 C-0.12 -0.06, -0.47 -0.21, -0.73 -0.37 C-0.98 -0.54, -1.32 -0.81, -1.55 -1 C-1.77 -1.19, -1.9 -1.47, -2.08 -1.53 C-2.26 -1.58, -2.47 -1.34, -2.62 -1.32 C-2.77 -1.3, -2.91 -1.35, -2.98 -1.43 C-3.04 -1.51, -3.08 -1.63, -2.99 -1.81 C-2.9 -2, -2.65 -2.28, -2.44 -2.54 C-2.24 -2.79, -2 -3.09, -1.76 -3.35 C-1.51 -3.61, -1.31 -3.82, -1 -4.09 C-0.7 -4.37, -0.32 -4.74, 0.08 -4.98 C0.47 -5.23, 0.92 -5.44, 1.37 -5.58 C1.81 -5.72, 2.25 -5.8, 2.74 -5.82 C3.22 -5.84, 3.84 -5.77, 4.27 -5.69 C4.7 -5.6, 4.97 -5.47, 5.32 -5.33 C5.68 -5.18, 6.19 -4.95, 6.39 -4.81 C6.6 -4.66, 6.53 -4.58, 6.53 -4.46 C6.54 -4.34, 6.58 -4.13, 6.44 -4.09 C6.3 -4.06, 5.86 -4.23, 5.7 -4.25 C5.54 -4.27, 5.5 -4.37, 5.47 -4.21 C5.45 -4.06, 5.56 -3.66, 5.56 -3.31 C5.56 -2.95, 5.59 -2.45, 5.49 -2.09 C5.39 -1.73, 5.21 -1.43, 4.97 -1.14 C4.73 -0.85, 4.37 -0.54, 4.05 -0.35 C3.72 -0.15, 3.38 -0.06, 3.04 0.03 C2.71 0.12, 2.38 0.16, 2.02 0.19 C1.66 0.22, 1.2 0.23, 0.86 0.2 C0.52 0.17, 0.14 0.03, 0 0 M0 0 C-0.12 -0.06, -0.47 -0.21, -0.73 -0.37 C-0.98 -0.54, -1.32 -0.81, -1.55 -1 C-1.77 -1.19, -1.9 -1.47, -2.08 -1.53 C-2.26 -1.58, -2.47 -1.34, -2.62 -1.32 C-2.77 -1.3, -2.91 -1.35, -2.98 -1.43 C-3.04 -1.51, -3.08 -1.63, -2.99 -1.81 C-2.9 -2, -2.65 -2.28, -2.44 -2.54 C-2.24 -2.79, -2 -3.09, -1.76 -3.35 C-1.51 -3.61, -1.31 -3.82, -1 -4.09 C-0.7 -4.37, -0.32 -4.74, 0.08 -4.98 C0.47 -5.23, 0.92 -5.44, 1.37 -5.58 C1.81 -5.72, 2.25 -5.8, 2.74 -5.82 C3.22 -5.84, 3.84 -5.77, 4.27 -5.69 C4.7 -5.6, 4.97 -5.47, 5.32 -5.33 C5.68 -5.18, 6.19 -4.95, 6.39 -4.81 C6.6 -4.66, 6.53 -4.58, 6.53 -4.46 C6.54 -4.34, 6.58 -4.13, 6.44 -4.09 C6.3 -4.06, 5.86 -4.23, 5.7 -4.25 C5.54 -4.27, 5.5 -4.37, 5.47 -4.21 C5.45 -4.06, 5.56 -3.66, 5.56 -3.31 C5.56 -2.95, 5.59 -2.45, 5.49 -2.09 C5.39 -1.73, 5.21 -1.43, 4.97 -1.14 C4.73 -0.85, 4.37 -0.54, 4.05 -0.35 C3.72 -0.15, 3.38 -0.06, 3.04 0.03 C2.71 0.12, 2.38 0.16, 2.02 0.19 C1.66 0.22, 1.2 0.23, 0.86 0.2 C0.52 0.17, 0.14 0.03, 0 0" stroke="#1c0c02" stroke-width="1" fill="none"></path></g></g><mask></mask><g stroke-linecap="round"><g transform="translate(30.59089306045098 16.76581468457971) rotate(0 -0.8721159257738691 0.3623626919874141)" fill-rule="evenodd"><path d="M0 0 C-0.09 -0.09, -0.34 -0.44, -0.54 -0.52 C-0.75 -0.6, -1.03 -0.57, -1.22 -0.48 C-1.41 -0.4, -1.6 -0.25, -1.68 -0.02 C-1.75 0.21, -1.79 0.67, -1.66 0.89 C-1.52 1.11, -1.12 1.29, -0.87 1.29 C-0.62 1.29, -0.28 1.09, -0.14 0.88 C0.01 0.66, -0.02 0.15, 0 0" stroke="none" stroke-width="0" fill="#f7f2ea" fill-rule="evenodd"></path><path d="M0 0 C-0.09 -0.09, -0.34 -0.44, -0.54 -0.52 C-0.75 -0.6, -1.03 -0.57, -1.22 -0.48 C-1.41 -0.4, -1.6 -0.25, -1.68 -0.02 C-1.75 0.21, -1.79 0.67, -1.66 0.89 C-1.52 1.11, -1.12 1.29, -0.87 1.29 C-0.62 1.29, -0.28 1.09, -0.14 0.88 C0.01 0.66, -0.02 0.15, 0 0 M0 0 C-0.09 -0.09, -0.34 -0.44, -0.54 -0.52 C-0.75 -0.6, -1.03 -0.57, -1.22 -0.48 C-1.41 -0.4, -1.6 -0.25, -1.68 -0.02 C-1.75 0.21, -1.79 0.67, -1.66 0.89 C-1.52 1.11, -1.12 1.29, -0.87 1.29 C-0.62 1.29, -0.28 1.09, -0.14 0.88 C0.01 0.66, -0.02 0.15, 0 0" stroke="#f9f5ed" stroke-width="1" fill="none"></path></g></g><mask></mask><g stroke-linecap="round" transform="translate(21.418204135206906 24.280994468974995) rotate(0 0.04406736196051497 0.04627528247158352)"><path d="M0.09 0.05 C0.09 0.05, 0.09 0.05, 0.09 0.05 C0.09 0.06, 0.09 0.06, 0.09 0.06 C0.08 0.06, 0.08 0.07, 0.08 0.07 C0.08 0.07, 0.08 0.07, 0.08 0.08 C0.08 0.08, 0.07 0.08, 0.07 0.08 C0.07 0.08, 0.07 0.09, 0.07 0.09 C0.06 0.09, 0.06 0.09, 0.06 0.09 C0.06 0.09, 0.05 0.09, 0.05 0.09 C0.05 0.09, 0.05 0.09, 0.04 0.09 C0.04 0.09, 0.04 0.09, 0.04 0.09 C0.03 0.09, 0.03 0.09, 0.03 0.09 C0.03 0.09, 0.02 0.09, 0.02 0.09 C0.02 0.09, 0.02 0.08, 0.02 0.08 C0.01 0.08, 0.01 0.08, 0.01 0.08 C0.01 0.07, 0.01 0.07, 0.01 0.07 C0 0.07, 0 0.06, 0 0.06 C0 0.06, 0 0.06, 0 0.05 C0 0.05, 0 0.05, 0 0.05 C0 0.04, 0 0.04, 0 0.04 C0 0.04, 0 0.03, 0 0.03 C0 0.03, 0 0.03, 0.01 0.02 C0.01 0.02, 0.01 0.02, 0.01 0.02 C0.01 0.01, 0.01 0.01, 0.02 0.01 C0.02 0.01, 0.02 0.01, 0.02 0.01 C0.02 0, 0.03 0, 0.03 0 C0.03 0, 0.03 0, 0.04 0 C0.04 0, 0.04 0, 0.04 0 C0.05 0, 0.05 0, 0.05 0 C0.05 0, 0.06 0, 0.06 0 C0.06 0, 0.06 0, 0.07 0.01 C0.07 0.01, 0.07 0.01, 0.07 0.01 C0.07 0.01, 0.08 0.01, 0.08 0.02 C0.08 0.02, 0.08 0.02, 0.08 0.02 C0.08 0.03, 0.08 0.03, 0.09 0.03 C0.09 0.03, 0.09 0.04, 0.09 0.04 C0.09 0.04, 0.09 0.04, 0.09 0.05 C0.09 0.05, 0.09 0.04, 0.09 0.05" stroke="none" stroke-width="0" fill="#1b0d04"></path><path d="M0.09 0.05 C0.09 0.05, 0.09 0.05, 0.09 0.05 C0.09 0.06, 0.09 0.06, 0.09 0.06 C0.08 0.06, 0.08 0.07, 0.08 0.07 C0.08 0.07, 0.08 0.07, 0.08 0.08 C0.08 0.08, 0.07 0.08, 0.07 0.08 C0.07 0.08, 0.07 0.09, 0.07 0.09 C0.06 0.09, 0.06 0.09, 0.06 0.09 C0.06 0.09, 0.05 0.09, 0.05 0.09 C0.05 0.09, 0.05 0.09, 0.04 0.09 C0.04 0.09, 0.04 0.09, 0.04 0.09 C0.03 0.09, 0.03 0.09, 0.03 0.09 C0.03 0.09, 0.02 0.09, 0.02 0.09 C0.02 0.09, 0.02 0.08, 0.02 0.08 C0.01 0.08, 0.01 0.08, 0.01 0.08 C0.01 0.07, 0.01 0.07, 0.01 0.07 C0 0.07, 0 0.06, 0 0.06 C0 0.06, 0 0.06, 0 0.05 C0 0.05, 0 0.05, 0 0.05 C0 0.04, 0 0.04, 0 0.04 C0 0.04, 0 0.03, 0 0.03 C0 0.03, 0 0.03, 0.01 0.02 C0.01 0.02, 0.01 0.02, 0.01 0.02 C0.01 0.01, 0.01 0.01, 0.02 0.01 C0.02 0.01, 0.02 0.01, 0.02 0.01 C0.02 0, 0.03 0, 0.03 0 C0.03 0, 0.03 0, 0.04 0 C0.04 0, 0.04 0, 0.04 0 C0.05 0, 0.05 0, 0.05 0 C0.05 0, 0.06 0, 0.06 0 C0.06 0, 0.06 0, 0.07 0.01 C0.07 0.01, 0.07 0.01, 0.07 0.01 C0.07 0.01, 0.08 0.01, 0.08 0.02 C0.08 0.02, 0.08 0.02, 0.08 0.02 C0.08 0.03, 0.08 0.03, 0.09 0.03 C0.09 0.03, 0.09 0.04, 0.09 0.04 C0.09 0.04, 0.09 0.04, 0.09 0.05 C0.09 0.05, 0.09 0.04, 0.09 0.05" stroke="#180d01" stroke-width="1" fill="none"></path></g><g stroke-linecap="round" transform="translate(22.17804885471014 22.79212376352075) rotate(0 0.04760207307845121 0.04998709430230974)"><path d="M0.1 0.05 C0.1 0.05, 0.09 0.06, 0.09 0.06 C0.09 0.06, 0.09 0.06, 0.09 0.07 C0.09 0.07, 0.09 0.07, 0.09 0.07 C0.09 0.08, 0.09 0.08, 0.08 0.08 C0.08 0.08, 0.08 0.09, 0.08 0.09 C0.08 0.09, 0.07 0.09, 0.07 0.09 C0.07 0.09, 0.07 0.1, 0.06 0.1 C0.06 0.1, 0.06 0.1, 0.06 0.1 C0.05 0.1, 0.05 0.1, 0.05 0.1 C0.04 0.1, 0.04 0.1, 0.04 0.1 C0.04 0.1, 0.03 0.1, 0.03 0.1 C0.03 0.1, 0.03 0.09, 0.02 0.09 C0.02 0.09, 0.02 0.09, 0.02 0.09 C0.01 0.09, 0.01 0.08, 0.01 0.08 C0.01 0.08, 0.01 0.08, 0.01 0.07 C0 0.07, 0 0.07, 0 0.07 C0 0.06, 0 0.06, 0 0.06 C0 0.06, 0 0.05, 0 0.05 C0 0.05, 0 0.04, 0 0.04 C0 0.04, 0 0.04, 0 0.03 C0 0.03, 0 0.03, 0.01 0.02 C0.01 0.02, 0.01 0.02, 0.01 0.02 C0.01 0.02, 0.01 0.01, 0.02 0.01 C0.02 0.01, 0.02 0.01, 0.02 0.01 C0.03 0.01, 0.03 0, 0.03 0 C0.03 0, 0.04 0, 0.04 0 C0.04 0, 0.04 0, 0.05 0 C0.05 0, 0.05 0, 0.06 0 C0.06 0, 0.06 0, 0.06 0 C0.07 0, 0.07 0.01, 0.07 0.01 C0.07 0.01, 0.08 0.01, 0.08 0.01 C0.08 0.01, 0.08 0.02, 0.08 0.02 C0.09 0.02, 0.09 0.02, 0.09 0.02 C0.09 0.03, 0.09 0.03, 0.09 0.03 C0.09 0.04, 0.09 0.04, 0.09 0.04 C0.09 0.04, 0.1 0.05, 0.1 0.05 C0.1 0.05, 0.1 0.05, 0.1 0.05" stroke="none" stroke-width="0" fill="#1b0d04"></path><path d="M0.1 0.05 C0.1 0.05, 0.09 0.06, 0.09 0.06 C0.09 0.06, 0.09 0.06, 0.09 0.07 C0.09 0.07, 0.09 0.07, 0.09 0.07 C0.09 0.08, 0.09 0.08, 0.08 0.08 C0.08 0.08, 0.08 0.09, 0.08 0.09 C0.08 0.09, 0.07 0.09, 0.07 0.09 C0.07 0.09, 0.07 0.1, 0.06 0.1 C0.06 0.1, 0.06 0.1, 0.06 0.1 C0.05 0.1, 0.05 0.1, 0.05 0.1 C0.04 0.1, 0.04 0.1, 0.04 0.1 C0.04 0.1, 0.03 0.1, 0.03 0.1 C0.03 0.1, 0.03 0.09, 0.02 0.09 C0.02 0.09, 0.02 0.09, 0.02 0.09 C0.01 0.09, 0.01 0.08, 0.01 0.08 C0.01 0.08, 0.01 0.08, 0.01 0.07 C0 0.07, 0 0.07, 0 0.07 C0 0.06, 0 0.06, 0 0.06 C0 0.06, 0 0.05, 0 0.05 C0 0.05, 0 0.04, 0 0.04 C0 0.04, 0 0.04, 0 0.03 C0 0.03, 0 0.03, 0.01 0.02 C0.01 0.02, 0.01 0.02, 0.01 0.02 C0.01 0.02, 0.01 0.01, 0.02 0.01 C0.02 0.01, 0.02 0.01, 0.02 0.01 C0.03 0.01, 0.03 0, 0.03 0 C0.03 0, 0.04 0, 0.04 0 C0.04 0, 0.04 0, 0.05 0 C0.05 0, 0.05 0, 0.06 0 C0.06 0, 0.06 0, 0.06 0 C0.07 0, 0.07 0.01, 0.07 0.01 C0.07 0.01, 0.08 0.01, 0.08 0.01 C0.08 0.01, 0.08 0.02, 0.08 0.02 C0.09 0.02, 0.09 0.02, 0.09 0.02 C0.09 0.03, 0.09 0.03, 0.09 0.03 C0.09 0.04, 0.09 0.04, 0.09 0.04 C0.09 0.04, 0.1 0.05, 0.1 0.05 C0.1 0.05, 0.1 0.05, 0.1 0.05" stroke="#180d01" stroke-width="1" fill="none"></path></g><g stroke-linecap="round" transform="translate(16.004755810212373 24.127816967982426) rotate(0 0.008081982323346892 0.04142034978713127)"><path d="M0.02 0.04 C0.02 0.04, 0.02 0.05, 0.02 0.05 C0.02 0.05, 0.02 0.05, 0.02 0.06 C0.02 0.06, 0.02 0.06, 0.02 0.06 C0.01 0.06, 0.01 0.07, 0.01 0.07 C0.01 0.07, 0.01 0.07, 0.01 0.07 C0.01 0.07, 0.01 0.08, 0.01 0.08 C0.01 0.08, 0.01 0.08, 0.01 0.08 C0.01 0.08, 0.01 0.08, 0.01 0.08 C0.01 0.08, 0.01 0.08, 0.01 0.08 C0.01 0.08, 0.01 0.08, 0.01 0.08 C0.01 0.08, 0.01 0.08, 0.01 0.08 C0 0.08, 0 0.08, 0 0.08 C0 0.08, 0 0.07, 0 0.07 C0 0.07, 0 0.07, 0 0.07 C0 0.07, 0 0.06, 0 0.06 C0 0.06, 0 0.06, 0 0.06 C0 0.05, 0 0.05, 0 0.05 C0 0.05, 0 0.04, 0 0.04 C0 0.04, 0 0.04, 0 0.03 C0 0.03, 0 0.03, 0 0.03 C0 0.03, 0 0.02, 0 0.02 C0 0.02, 0 0.02, 0 0.01 C0 0.01, 0 0.01, 0 0.01 C0 0.01, 0 0.01, 0 0.01 C0 0, 0 0, 0.01 0 C0.01 0, 0.01 0, 0.01 0 C0.01 0, 0.01 0, 0.01 0 C0.01 0, 0.01 0, 0.01 0 C0.01 0, 0.01 0, 0.01 0 C0.01 0, 0.01 0, 0.01 0.01 C0.01 0.01, 0.01 0.01, 0.01 0.01 C0.01 0.01, 0.01 0.01, 0.01 0.01 C0.01 0.02, 0.01 0.02, 0.02 0.02 C0.02 0.02, 0.02 0.03, 0.02 0.03 C0.02 0.03, 0.02 0.03, 0.02 0.03 C0.02 0.04, 0.02 0.04, 0.02 0.04 C0.02 0.04, 0.02 0.04, 0.02 0.04" stroke="none" stroke-width="0" fill="#1b0d04"></path><path d="M0.02 0.04 C0.02 0.04, 0.02 0.05, 0.02 0.05 C0.02 0.05, 0.02 0.05, 0.02 0.06 C0.02 0.06, 0.02 0.06, 0.02 0.06 C0.01 0.06, 0.01 0.07, 0.01 0.07 C0.01 0.07, 0.01 0.07, 0.01 0.07 C0.01 0.07, 0.01 0.08, 0.01 0.08 C0.01 0.08, 0.01 0.08, 0.01 0.08 C0.01 0.08, 0.01 0.08, 0.01 0.08 C0.01 0.08, 0.01 0.08, 0.01 0.08 C0.01 0.08, 0.01 0.08, 0.01 0.08 C0.01 0.08, 0.01 0.08, 0.01 0.08 C0 0.08, 0 0.08, 0 0.08 C0 0.08, 0 0.07, 0 0.07 C0 0.07, 0 0.07, 0 0.07 C0 0.07, 0 0.06, 0 0.06 C0 0.06, 0 0.06, 0 0.06 C0 0.05, 0 0.05, 0 0.05 C0 0.05, 0 0.04, 0 0.04 C0 0.04, 0 0.04, 0 0.03 C0 0.03, 0 0.03, 0 0.03 C0 0.03, 0 0.02, 0 0.02 C0 0.02, 0 0.02, 0 0.01 C0 0.01, 0 0.01, 0 0.01 C0 0.01, 0 0.01, 0 0.01 C0 0, 0 0, 0.01 0 C0.01 0, 0.01 0, 0.01 0 C0.01 0, 0.01 0, 0.01 0 C0.01 0, 0.01 0, 0.01 0 C0.01 0, 0.01 0, 0.01 0 C0.01 0, 0.01 0, 0.01 0.01 C0.01 0.01, 0.01 0.01, 0.01 0.01 C0.01 0.01, 0.01 0.01, 0.01 0.01 C0.01 0.02, 0.01 0.02, 0.02 0.02 C0.02 0.02, 0.02 0.03, 0.02 0.03 C0.02 0.03, 0.02 0.03, 0.02 0.03 C0.02 0.04, 0.02 0.04, 0.02 0.04 C0.02 0.04, 0.02 0.04, 0.02 0.04" stroke="#180d01" stroke-width="1" fill="none"></path></g><g stroke-linecap="round"><g transform="translate(16.578412950477286 18.03388534442638) rotate(0 0.5583727217062915 -0.7404177036297597)" fill-rule="evenodd"><path d="M0 0 C0.11 -0.13, 0.44 -0.53, 0.63 -0.81 C0.82 -1.08, 0.98 -1.36, 1.12 -1.63 C1.25 -1.89, 1.33 -2.26, 1.45 -2.39 C1.57 -2.53, 1.79 -2.51, 1.83 -2.42 C1.88 -2.33, 1.79 -2.09, 1.73 -1.85 C1.68 -1.62, 1.61 -1.28, 1.51 -0.99 C1.41 -0.71, 1.32 -0.42, 1.11 -0.13 C0.89 0.16, 0.48 0.53, 0.23 0.72 C-0.01 0.91, -0.21 1.01, -0.37 1.01 C-0.53 1.01, -0.78 0.88, -0.72 0.71 C-0.66 0.55, -0.12 0.12, 0 0" stroke="none" stroke-width="0" fill="#1b0d04" fill-rule="evenodd"></path><path d="M0 0 C0.11 -0.13, 0.44 -0.53, 0.63 -0.81 C0.82 -1.08, 0.98 -1.36, 1.12 -1.63 C1.25 -1.89, 1.33 -2.26, 1.45 -2.39 C1.57 -2.53, 1.79 -2.51, 1.83 -2.42 C1.88 -2.33, 1.79 -2.09, 1.73 -1.85 C1.68 -1.62, 1.61 -1.28, 1.51 -0.99 C1.41 -0.71, 1.32 -0.42, 1.11 -0.13 C0.89 0.16, 0.48 0.53, 0.23 0.72 C-0.01 0.91, -0.21 1.01, -0.37 1.01 C-0.53 1.01, -0.78 0.88, -0.72 0.71 C-0.66 0.55, -0.12 0.12, 0 0 M0 0 C0.11 -0.13, 0.44 -0.53, 0.63 -0.81 C0.82 -1.08, 0.98 -1.36, 1.12 -1.63 C1.25 -1.89, 1.33 -2.26, 1.45 -2.39 C1.57 -2.53, 1.79 -2.51, 1.83 -2.42 C1.88 -2.33, 1.79 -2.09, 1.73 -1.85 C1.68 -1.62, 1.61 -1.28, 1.51 -0.99 C1.41 -0.71, 1.32 -0.42, 1.11 -0.13 C0.89 0.16, 0.48 0.53, 0.23 0.72 C-0.01 0.91, -0.21 1.01, -0.37 1.01 C-0.53 1.01, -0.78 0.88, -0.72 0.71 C-0.66 0.55, -0.12 0.12, 0 0" stroke="#180d01" stroke-width="1" fill="none"></path></g></g><mask></mask><g stroke-linecap="round"><g transform="translate(17.838035721042615 16.16918218330602) rotate(0 -0.551972592796119 0.5318186868504426)" fill-rule="evenodd"><path d="M0 0 C-0.04 -0.03, -0.11 -0.15, -0.23 -0.17 C-0.35 -0.18, -0.56 -0.21, -0.7 -0.1 C-0.84 0.02, -1.02 0.33, -1.08 0.53 C-1.13 0.74, -1.09 1.02, -1.04 1.13 C-0.98 1.24, -0.85 1.29, -0.75 1.21 C-0.65 1.13, -0.54 0.84, -0.42 0.64 C-0.29 0.44, -0.07 0.11, 0 0" stroke="none" stroke-width="0" fill="#f7f2ea" fill-rule="evenodd"></path><path d="M0 0 C-0.04 -0.03, -0.11 -0.15, -0.23 -0.17 C-0.35 -0.18, -0.56 -0.21, -0.7 -0.1 C-0.84 0.02, -1.02 0.33, -1.08 0.53 C-1.13 0.74, -1.09 1.02, -1.04 1.13 C-0.98 1.24, -0.85 1.29, -0.75 1.21 C-0.65 1.13, -0.54 0.84, -0.42 0.64 C-0.29 0.44, -0.07 0.11, 0 0 M0 0 C-0.04 -0.03, -0.11 -0.15, -0.23 -0.17 C-0.35 -0.18, -0.56 -0.21, -0.7 -0.1 C-0.84 0.02, -1.02 0.33, -1.08 0.53 C-1.13 0.74, -1.09 1.02, -1.04 1.13 C-0.98 1.24, -0.85 1.29, -0.75 1.21 C-0.65 1.13, -0.54 0.84, -0.42 0.64 C-0.29 0.44, -0.07 0.11, 0 0" stroke="#f9f5ed" stroke-width="1" fill="none"></path></g></g><mask></mask><g stroke-linecap="round"><g transform="translate(14.524043638590229 22.531027208724254) rotate(0 -2.2620218192951143 1.000192629284129)"><path d="M0 0 C-0.09 0.01, -0.32 0.01, -0.53 0.03 C-0.73 0.06, -0.96 0.08, -1.23 0.13 C-1.49 0.19, -1.8 0.27, -2.11 0.38 C-2.42 0.48, -2.77 0.6, -3.08 0.77 C-3.39 0.93, -3.7 1.17, -3.94 1.37 C-4.18 1.58, -4.43 1.9, -4.52 2 M0 0 C-0.09 0.01, -0.32 0.01, -0.53 0.03 C-0.73 0.06, -0.96 0.08, -1.23 0.13 C-1.49 0.19, -1.8 0.27, -2.11 0.38 C-2.42 0.48, -2.77 0.6, -3.08 0.77 C-3.39 0.93, -3.7 1.17, -3.94 1.37 C-4.18 1.58, -4.43 1.9, -4.52 2" stroke="#180d01" stroke-width="1" fill="none"></path></g></g><mask></mask><g stroke-linecap="round"><g transform="translate(14.770635805765778 24.07586466694056) rotate(0 -2.354442054995161 1.7776380243053609)"><path d="M0 0 C-0.12 0.05, -0.48 0.17, -0.72 0.27 C-0.96 0.38, -1.23 0.51, -1.45 0.63 C-1.67 0.75, -1.83 0.83, -2.05 0.98 C-2.27 1.13, -2.54 1.33, -2.78 1.53 C-3.02 1.73, -3.26 1.93, -3.5 2.17 C-3.75 2.41, -4.06 2.74, -4.26 2.97 C-4.46 3.21, -4.63 3.46, -4.71 3.56 M0 0 C-0.12 0.05, -0.48 0.17, -0.72 0.27 C-0.96 0.38, -1.23 0.51, -1.45 0.63 C-1.67 0.75, -1.83 0.83, -2.05 0.98 C-2.27 1.13, -2.54 1.33, -2.78 1.53 C-3.02 1.73, -3.26 1.93, -3.5 2.17 C-3.75 2.41, -4.06 2.74, -4.26 2.97 C-4.46 3.21, -4.63 3.46, -4.71 3.56" stroke="#180d01" stroke-width="1" fill="none"></path></g></g><mask></mask><g stroke-linecap="round"><g transform="translate(23.652325432018188 22.512484302606254) rotate(0 4.12005424117433 0.5751010950989439)"><path d="M0 0 C0.15 -0.03, 0.5 -0.17, 0.9 -0.21 C1.3 -0.24, 1.82 -0.26, 2.39 -0.21 C2.97 -0.16, 3.68 -0.07, 4.35 0.08 C5.03 0.23, 5.79 0.48, 6.44 0.69 C7.09 0.91, 7.94 1.27, 8.24 1.39 M0 0 C0.15 -0.03, 0.5 -0.17, 0.9 -0.21 C1.3 -0.24, 1.82 -0.26, 2.39 -0.21 C2.97 -0.16, 3.68 -0.07, 4.35 0.08 C5.03 0.23, 5.79 0.48, 6.44 0.69 C7.09 0.91, 7.94 1.27, 8.24 1.39" stroke="#180d01" stroke-width="1" fill="none"></path></g></g><mask></mask><g stroke-linecap="round"><g transform="translate(17.321015728824932 27.586928688327134) rotate(0 9.73379562084665 -0.4158894459704925)" fill-rule="evenodd"><path d="M0 0 C-0.06 -0.05, -0.3 -0.25, -0.34 -0.3 C-0.37 -0.36, -0.45 -0.47, -0.23 -0.34 C0 -0.2, 0.46 0.23, 1.01 0.49 C1.56 0.75, 2.26 1.02, 3.06 1.21 C3.86 1.4, 4.82 1.56, 5.81 1.62 C6.8 1.69, 8.02 1.67, 9.02 1.61 C10.02 1.54, 10.93 1.38, 11.82 1.22 C12.72 1.06, 13.55 0.91, 14.39 0.63 C15.23 0.34, 16.14 -0.1, 16.87 -0.49 C17.59 -0.88, 18.26 -1.37, 18.72 -1.7 C19.18 -2.03, 19.42 -2.29, 19.6 -2.47 C19.78 -2.65, 19.9 -2.88, 19.82 -2.78 C19.75 -2.67, 19.43 -2.16, 19.13 -1.85 C18.83 -1.54, 18.61 -1.32, 18 -0.91 C17.4 -0.5, 16.43 0.2, 15.5 0.61 C14.56 1.02, 13.47 1.35, 12.39 1.57 C11.32 1.79, 10.07 1.86, 9.05 1.92 C8.04 1.99, 7.03 1.98, 6.28 1.95 C5.53 1.92, 5.13 1.83, 4.56 1.75 C3.99 1.67, 3.38 1.61, 2.84 1.46 C2.3 1.31, 1.7 1.05, 1.32 0.85 C0.94 0.65, 0.69 0.35, 0.56 0.25" stroke="none" stroke-width="0" fill="#1b0d04" fill-rule="evenodd"></path><path d="M0 0 C-0.06 -0.05, -0.3 -0.25, -0.34 -0.3 C-0.37 -0.36, -0.45 -0.47, -0.23 -0.34 C0 -0.2, 0.46 0.23, 1.01 0.49 C1.56 0.75, 2.26 1.02, 3.06 1.21 C3.86 1.4, 4.82 1.56, 5.81 1.62 C6.8 1.69, 8.02 1.67, 9.02 1.61 C10.02 1.54, 10.93 1.38, 11.82 1.22 C12.72 1.06, 13.55 0.91, 14.39 0.63 C15.23 0.34, 16.14 -0.1, 16.87 -0.49 C17.59 -0.88, 18.26 -1.37, 18.72 -1.7 C19.18 -2.03, 19.42 -2.29, 19.6 -2.47 C19.78 -2.65, 19.9 -2.88, 19.82 -2.78 C19.75 -2.67, 19.43 -2.16, 19.13 -1.85 C18.83 -1.54, 18.61 -1.32, 18 -0.91 C17.4 -0.5, 16.43 0.2, 15.5 0.61 C14.56 1.02, 13.47 1.35, 12.39 1.57 C11.32 1.79, 10.07 1.86, 9.05 1.92 C8.04 1.99, 7.03 1.98, 6.28 1.95 C5.53 1.92, 5.13 1.83, 4.56 1.75 C3.99 1.67, 3.38 1.61, 2.84 1.46 C2.3 1.31, 1.7 1.05, 1.32 0.85 C0.94 0.65, 0.69 0.35, 0.56 0.25 M0 0 C-0.06 -0.05, -0.3 -0.25, -0.34 -0.3 C-0.37 -0.36, -0.45 -0.47, -0.23 -0.34 C0 -0.2, 0.46 0.23, 1.01 0.49 C1.56 0.75, 2.26 1.02, 3.06 1.21 C3.86 1.4, 4.82 1.56, 5.81 1.62 C6.8 1.69, 8.02 1.67, 9.02 1.61 C10.02 1.54, 10.93 1.38, 11.82 1.22 C12.72 1.06, 13.55 0.91, 14.39 0.63 C15.23 0.34, 16.14 -0.1, 16.87 -0.49 C17.59 -0.88, 18.26 -1.37, 18.72 -1.7 C19.18 -2.03, 19.42 -2.29, 19.6 -2.47 C19.78 -2.65, 19.9 -2.88, 19.82 -2.78 C19.75 -2.67, 19.43 -2.16, 19.13 -1.85 C18.83 -1.54, 18.61 -1.32, 18 -0.91 C17.4 -0.5, 16.43 0.2, 15.5 0.61 C14.56 1.02, 13.47 1.35, 12.39 1.57 C11.32 1.79, 10.07 1.86, 9.05 1.92 C8.04 1.99, 7.03 1.98, 6.28 1.95 C5.53 1.92, 5.13 1.83, 4.56 1.75 C3.99 1.67, 3.38 1.61, 2.84 1.46 C2.3 1.31, 1.7 1.05, 1.32 0.85 C0.94 0.65, 0.69 0.35, 0.56 0.25" stroke="#180d01" stroke-width="1" fill="none"></path></g></g><mask></mask><g stroke-linecap="round"><g transform="translate(22.07878052099295 30.995313043337546) rotate(0 2.2287871747366808 0.2554236543043089)" fill-rule="evenodd"><path d="M0 0 C0.13 0.04, 0.47 0.15, 0.8 0.23 C1.12 0.32, 1.58 0.44, 1.96 0.48 C2.34 0.53, 2.77 0.51, 3.09 0.48 C3.4 0.45, 3.64 0.36, 3.87 0.31 C4.1 0.26, 4.36 0.19, 4.46 0.17" stroke="none" stroke-width="0" fill="#1b0d04" fill-rule="evenodd"></path><path d="M0 0 C0.13 0.04, 0.47 0.15, 0.8 0.23 C1.12 0.32, 1.58 0.44, 1.96 0.48 C2.34 0.53, 2.77 0.51, 3.09 0.48 C3.4 0.45, 3.64 0.36, 3.87 0.31 C4.1 0.26, 4.36 0.19, 4.46 0.17 M0 0 C0.13 0.04, 0.47 0.15, 0.8 0.23 C1.12 0.32, 1.58 0.44, 1.96 0.48 C2.34 0.53, 2.77 0.51, 3.09 0.48 C3.4 0.45, 3.64 0.36, 3.87 0.31 C4.1 0.26, 4.36 0.19, 4.46 0.17" stroke="#180d01" stroke-width="1" fill="none"></path></g></g><mask></mask><g stroke-linecap="round"><g transform="translate(22.829467962324998 32.76239104389265) rotate(3.688665412912039 1.1836280494835592 0.14390243931779878)" fill-rule="evenodd"><path d="M0 0 C0.07 0.02, 0.25 0.09, 0.42 0.13 C0.6 0.18, 0.84 0.25, 1.04 0.27 C1.24 0.3, 1.47 0.29, 1.64 0.27 C1.81 0.26, 1.93 0.2, 2.05 0.17 C2.18 0.14, 2.32 0.11, 2.37 0.1" stroke="none" stroke-width="0" fill="#1b0d04" fill-rule="evenodd"></path><path d="M0 0 C0.07 0.02, 0.25 0.09, 0.42 0.13 C0.6 0.18, 0.84 0.25, 1.04 0.27 C1.24 0.3, 1.47 0.29, 1.64 0.27 C1.81 0.26, 1.93 0.2, 2.05 0.17 C2.18 0.14, 2.32 0.11, 2.37 0.1 M0 0 C0.07 0.02, 0.25 0.09, 0.42 0.13 C0.6 0.18, 0.84 0.25, 1.04 0.27 C1.24 0.3, 1.47 0.29, 1.64 0.27 C1.81 0.26, 1.93 0.2, 2.05 0.17 C2.18 0.14, 2.32 0.11, 2.37 0.1" stroke="#180d01" stroke-width="1" fill="none"></path></g></g><mask></mask><g stroke-linecap="round"><g transform="translate(15.45910097190972 25.696984829138273) rotate(352.9959305207314 -2.330277012805709 2.0088616121074665)"><path d="M0.05 0 C-0.07 0.05, -0.43 0.19, -0.68 0.31 C-0.92 0.43, -1.19 0.58, -1.42 0.71 C-1.64 0.84, -1.8 0.94, -2.02 1.1 C-2.25 1.27, -2.52 1.5, -2.76 1.73 C-3 1.95, -3.24 2.18, -3.49 2.45 C-3.74 2.72, -4.05 3.1, -4.25 3.36 C-4.46 3.62, -4.63 3.91, -4.71 4.02 M0.05 0 C-0.07 0.05, -0.43 0.19, -0.68 0.31 C-0.92 0.43, -1.19 0.58, -1.42 0.71 C-1.64 0.84, -1.8 0.94, -2.02 1.1 C-2.25 1.27, -2.52 1.5, -2.76 1.73 C-3 1.95, -3.24 2.18, -3.49 2.45 C-3.74 2.72, -4.05 3.1, -4.25 3.36 C-4.46 3.62, -4.63 3.91, -4.71 4.02" stroke="#180d01" stroke-width="1" fill="none"></path></g></g><mask></mask><g stroke-linecap="round"><g transform="translate(16.806856138589865 27.707199083724163) rotate(321.77635360870704 -2.2620218192951143 1.000192629284129)"><path d="M0 0 C-0.09 0.01, -0.32 0.01, -0.53 0.03 C-0.73 0.06, -0.96 0.08, -1.23 0.13 C-1.49 0.19, -1.8 0.27, -2.11 0.38 C-2.42 0.48, -2.77 0.6, -3.08 0.77 C-3.39 0.93, -3.7 1.17, -3.94 1.37 C-4.18 1.58, -4.43 1.9, -4.52 2 M0 0 C-0.09 0.01, -0.32 0.01, -0.53 0.03 C-0.73 0.06, -0.96 0.08, -1.23 0.13 C-1.49 0.19, -1.8 0.27, -2.11 0.38 C-2.42 0.48, -2.77 0.6, -3.08 0.77 C-3.39 0.93, -3.7 1.17, -3.94 1.37 C-4.18 1.58, -4.43 1.9, -4.52 2" stroke="#180d01" stroke-width="1" fill="none"></path></g></g><mask></mask><g stroke-linecap="round"><g transform="translate(24.095208537321014 25.415114978080737) rotate(18.092533635155 5.85690537278515 0.5683508483963351)"><path d="M0 0 C0.21 -0.03, 0.72 -0.17, 1.28 -0.21 C1.85 -0.25, 2.58 -0.28, 3.39 -0.23 C4.21 -0.18, 5.23 -0.07, 6.19 0.08 C7.15 0.24, 8.24 0.48, 9.16 0.69 C10.08 0.91, 11.29 1.27, 11.71 1.39 M0 0 C0.21 -0.03, 0.72 -0.17, 1.28 -0.21 C1.85 -0.25, 2.58 -0.28, 3.39 -0.23 C4.21 -0.18, 5.23 -0.07, 6.19 0.08 C7.15 0.24, 8.24 0.48, 9.16 0.69 C10.08 0.91, 11.29 1.27, 11.71 1.39" stroke="#180d01" stroke-width="1" fill="none"></path></g></g><mask></mask><g stroke-linecap="round"><g transform="translate(22.62212165377423 26.928428333202874) rotate(28.54709342164419 4.659592953825268 0.5751010950989439)"><path d="M0 0 C0.17 -0.03, 0.57 -0.17, 1.02 -0.21 C1.47 -0.24, 2.06 -0.26, 2.71 -0.21 C3.36 -0.16, 4.16 -0.07, 4.92 0.08 C5.69 0.23, 6.55 0.48, 7.29 0.69 C8.02 0.91, 8.98 1.27, 9.32 1.39 M0 0 C0.17 -0.03, 0.57 -0.17, 1.02 -0.21 C1.47 -0.24, 2.06 -0.26, 2.71 -0.21 C3.36 -0.16, 4.16 -0.07, 4.92 0.08 C5.69 0.23, 6.55 0.48, 7.29 0.69 C8.02 0.91, 8.98 1.27, 9.32 1.39" stroke="#180d01" stroke-width="1" fill="none"></path></g></g><mask></mask></svg>
