<svg version="1.1" xmlns="http://www.w3.org/2000/svg" viewBox="0 0 81.86133639571563 65.56648128931556" width="163.72267279143125" height="131.13296257863112">
  <!-- svg-source:excalidraw -->
  
  <defs>
    <style class="style-fonts">
      
    </style>
    
  </defs>
  <rect x="0" y="0" width="81.86133639571563" height="65.56648128931556" fill="#f8f9fa"></rect><g stroke-linecap="round" transform="translate(10.923891658506363 10) rotate(0 29.738316979544834 22.78324064465778)"><path d="M11.39 0 C17.76 -0.81, 31.29 -2.79, 48.09 0 C57.49 -3.51, 60.1 6.43, 59.48 11.39 C59.8 19.75, 61.81 26.51, 59.48 34.17 C60.7 43.44, 58.57 43.98, 48.09 45.57 C31.37 46.48, 23.09 48.06, 11.39 45.57 C1.01 45.91, 2.49 44.45, 0 34.17 C0.57 25.45, 2.98 23.55, 0 11.39 C0.08 3.64, 1.16 -2.78, 11.39 0" stroke="none" stroke-width="0" fill="#f8f9fa"></path><path d="M11.39 0 C21.93 -1.22, 34.78 0.43, 48.09 0 M11.39 0 C21.27 1.2, 29.22 0.27, 48.09 0 M48.09 0 C55.61 1.86, 60.85 2.61, 59.48 11.39 M48.09 0 C53.54 -0.93, 58.4 4.81, 59.48 11.39 M59.48 11.39 C60.53 17.67, 59.35 25.3, 59.48 34.17 M59.48 11.39 C58.55 18.5, 59.59 25.11, 59.48 34.17 M59.48 34.17 C58.56 40.78, 57.42 46.18, 48.09 45.57 M59.48 34.17 C59.37 43.02, 54.09 46.06, 48.09 45.57 M48.09 45.57 C39.26 47.12, 32.39 43.94, 11.39 45.57 M48.09 45.57 C35.73 46.1, 24.1 45.67, 11.39 45.57 M11.39 45.57 C2.33 45.53, -1.22 41.29, 0 34.17 M11.39 45.57 C3.62 46.74, 2.27 40.18, 0 34.17 M0 34.17 C-0.24 27.16, 0.44 20.5, 0 11.39 M0 34.17 C0.85 29.29, -0.69 23.6, 0 11.39 M0 11.39 C-1.37 4.44, 4.91 0.76, 11.39 0 M0 11.39 C1.41 4.01, 2.99 1.53, 11.39 0" stroke="#1e1e1e" stroke-width="2" fill="none"></path></g><g stroke-linecap="round"><g transform="translate(10.687875612452444 22.6089863754587) rotate(0 30.24279258540537 8.30305614591407)"><path d="M-0.69 -0.44 C3.3 2.16, 19.05 11.77, 24.19 14.7 C29.34 17.64, 28.09 16.87, 30.19 17.17 C32.29 17.46, 31.96 19.39, 36.78 16.47 C41.61 13.55, 55.38 2.27, 59.15 -0.35 M1.15 -1.72 C4.99 1.11, 18.7 12.61, 23.4 15.91 C28.11 19.2, 27.02 18.26, 29.38 18.03 C31.73 17.79, 32.26 17.5, 37.55 14.5 C42.85 11.5, 57.29 2.4, 61.17 0.04" stroke="#1e1e1e" stroke-width="2" fill="none"></path></g></g><mask></mask></svg>