<svg version="1.1" xmlns="http://www.w3.org/2000/svg" viewBox="0 0 56.124145499848964 56.124145499848964" width="112.24829099969793" height="112.24829099969793">
  <!-- svg-source:excalidraw -->
  
  <defs>
    <style class="style-fonts">
      
    </style>
    
  </defs>
  <rect x="0" y="0" width="56.124145499848964" height="56.124145499848964" fill="#f8f9fa"></rect><g stroke-linecap="round" transform="translate(9.99999999999909 9.99999999999909) rotate(0 18.062072749924937 18.062072749924937)"><path d="M36.12 18.06 C36.12 19.11, 36.03 20.17, 35.85 21.2 C35.67 22.23, 35.39 23.26, 35.03 24.24 C34.68 25.22, 34.23 26.19, 33.7 27.09 C33.18 28, 32.57 28.87, 31.9 29.67 C31.23 30.47, 30.47 31.23, 29.67 31.9 C28.87 32.57, 28 33.18, 27.09 33.7 C26.19 34.23, 25.22 34.68, 24.24 35.03 C23.26 35.39, 22.23 35.67, 21.2 35.85 C20.17 36.03, 19.11 36.12, 18.06 36.12 C17.02 36.12, 15.96 36.03, 14.93 35.85 C13.9 35.67, 12.87 35.39, 11.88 35.03 C10.9 34.68, 9.94 34.23, 9.03 33.7 C8.13 33.18, 7.25 32.57, 6.45 31.9 C5.65 31.23, 4.9 30.47, 4.23 29.67 C3.55 28.87, 2.94 28, 2.42 27.09 C1.9 26.19, 1.45 25.22, 1.09 24.24 C0.73 23.26, 0.46 22.23, 0.27 21.2 C0.09 20.17, 0 19.11, 0 18.06 C0 17.02, 0.09 15.96, 0.27 14.93 C0.46 13.9, 0.73 12.87, 1.09 11.88 C1.45 10.9, 1.9 9.94, 2.42 9.03 C2.94 8.13, 3.55 7.25, 4.23 6.45 C4.9 5.65, 5.65 4.9, 6.45 4.23 C7.25 3.55, 8.13 2.94, 9.03 2.42 C9.94 1.9, 10.9 1.45, 11.88 1.09 C12.87 0.73, 13.9 0.46, 14.93 0.27 C15.96 0.09, 17.02 0, 18.06 0 C19.11 0, 20.17 0.09, 21.2 0.27 C22.23 0.46, 23.26 0.73, 24.24 1.09 C25.22 1.45, 26.19 1.9, 27.09 2.42 C28 2.94, 28.87 3.55, 29.67 4.23 C30.47 4.9, 31.23 5.65, 31.9 6.45 C32.57 7.25, 33.18 8.13, 33.7 9.03 C34.23 9.94, 34.68 10.9, 35.03 11.88 C35.39 12.87, 35.67 13.9, 35.85 14.93 C36.03 15.96, 36.08 17.54, 36.12 18.06 C36.17 18.58, 36.17 17.54, 36.12 18.06" stroke="none" stroke-width="0" fill="#40c057"></path><path d="M36.12 18.06 C36.12 19.11, 36.03 20.17, 35.85 21.2 C35.67 22.23, 35.39 23.26, 35.03 24.24 C34.68 25.22, 34.23 26.19, 33.7 27.09 C33.18 28, 32.57 28.87, 31.9 29.67 C31.23 30.47, 30.47 31.23, 29.67 31.9 C28.87 32.57, 28 33.18, 27.09 33.7 C26.19 34.23, 25.22 34.68, 24.24 35.03 C23.26 35.39, 22.23 35.67, 21.2 35.85 C20.17 36.03, 19.11 36.12, 18.06 36.12 C17.02 36.12, 15.96 36.03, 14.93 35.85 C13.9 35.67, 12.87 35.39, 11.88 35.03 C10.9 34.68, 9.94 34.23, 9.03 33.7 C8.13 33.18, 7.25 32.57, 6.45 31.9 C5.65 31.23, 4.9 30.47, 4.23 29.67 C3.55 28.87, 2.94 28, 2.42 27.09 C1.9 26.19, 1.45 25.22, 1.09 24.24 C0.73 23.26, 0.46 22.23, 0.27 21.2 C0.09 20.17, 0 19.11, 0 18.06 C0 17.02, 0.09 15.96, 0.27 14.93 C0.46 13.9, 0.73 12.87, 1.09 11.88 C1.45 10.9, 1.9 9.94, 2.42 9.03 C2.94 8.13, 3.55 7.25, 4.23 6.45 C4.9 5.65, 5.65 4.9, 6.45 4.23 C7.25 3.55, 8.13 2.94, 9.03 2.42 C9.94 1.9, 10.9 1.45, 11.88 1.09 C12.87 0.73, 13.9 0.46, 14.93 0.27 C15.96 0.09, 17.02 0, 18.06 0 C19.11 0, 20.17 0.09, 21.2 0.27 C22.23 0.46, 23.26 0.73, 24.24 1.09 C25.22 1.45, 26.19 1.9, 27.09 2.42 C28 2.94, 28.87 3.55, 29.67 4.23 C30.47 4.9, 31.23 5.65, 31.9 6.45 C32.57 7.25, 33.18 8.13, 33.7 9.03 C34.23 9.94, 34.68 10.9, 35.03 11.88 C35.39 12.87, 35.67 13.9, 35.85 14.93 C36.03 15.96, 36.08 17.54, 36.12 18.06 C36.17 18.58, 36.17 17.54, 36.12 18.06" stroke="transparent" stroke-width="1" fill="none"></path></g><g stroke-linecap="round"><g transform="translate(19.104748267610375 28.077993702950153) rotate(0 9.286078505463593 0.5504026125704513)"><path d="M0 0 C1.55 2.32, 2.08 4.37, 4.7 8.4 M0 0 C1.15 1.76, 1.86 3.52, 4.7 8.4 M4.7 8.4 C9.52 3.53, 13.9 -2.39, 18.57 -7.3 M4.7 8.4 C9.76 3.02, 15.05 -3.27, 18.57 -7.3" stroke="#ffffff" stroke-width="4" fill="none"></path></g></g><mask></mask></svg>